G04 EAGLE Gerber RS-274X export*
G75*
%MOMM*%
%FSLAX34Y34*%
%LPD*%
%INBottom Copper*%
%IPPOS*%
%AMOC8*
5,1,8,0,0,1.08239X$1,22.5*%
G01*
%ADD10C,1.016000*%
%ADD11C,4.445000*%
%ADD12C,1.400000*%
%ADD13C,1.960000*%
%ADD14R,1.524000X1.524000*%
%ADD15P,1.649562X8X22.500000*%
%ADD16R,1.400000X1.400000*%
%ADD17C,5.000000*%
%ADD18R,1.651000X1.651000*%
%ADD19C,1.651000*%
%ADD20C,0.254000*%
%ADD21C,0.654800*%
%ADD22C,0.609600*%


D10*
X1219200Y889000D03*
X1214120Y121920D03*
X50800Y889000D03*
D11*
X50800Y50800D03*
X1219200Y50800D03*
X1219200Y965200D03*
X50800Y965200D03*
D12*
X576980Y193040D03*
X601980Y193040D03*
X626980Y193040D03*
X152800Y891540D03*
X177800Y891540D03*
X202800Y891540D03*
D13*
X1027700Y428860D03*
X1027700Y378860D03*
X902700Y378860D03*
X902700Y428860D03*
D14*
X117520Y268980D03*
D15*
X117520Y294380D03*
X142920Y268980D03*
X142920Y294380D03*
X168320Y268980D03*
X168320Y294380D03*
X193720Y268980D03*
X193720Y294380D03*
X219120Y268980D03*
X219120Y294380D03*
X244520Y268980D03*
X244520Y294380D03*
X269920Y268980D03*
X269920Y294380D03*
X295320Y268980D03*
X295320Y294380D03*
X320720Y268980D03*
X320720Y294380D03*
X346120Y268980D03*
X346120Y294380D03*
X371520Y268980D03*
X371520Y294380D03*
X396920Y268980D03*
X396920Y294380D03*
X422320Y268980D03*
X422320Y294380D03*
X447720Y268980D03*
X447720Y294380D03*
X473120Y268980D03*
X473120Y294380D03*
X498520Y268980D03*
X498520Y294380D03*
X523920Y268980D03*
X523920Y294380D03*
X549320Y268980D03*
X549320Y294380D03*
D14*
X117520Y522980D03*
D15*
X117520Y548380D03*
X142920Y522980D03*
X142920Y548380D03*
X168320Y522980D03*
X168320Y548380D03*
X193720Y522980D03*
X193720Y548380D03*
X219120Y522980D03*
X219120Y548380D03*
X244520Y522980D03*
X244520Y548380D03*
X269920Y522980D03*
X269920Y548380D03*
X295320Y522980D03*
X295320Y548380D03*
X320720Y522980D03*
X320720Y548380D03*
X346120Y522980D03*
X346120Y548380D03*
X371520Y522980D03*
X371520Y548380D03*
X396920Y522980D03*
X396920Y548380D03*
X422320Y522980D03*
X422320Y548380D03*
X447720Y522980D03*
X447720Y548380D03*
X473120Y522980D03*
X473120Y548380D03*
X498520Y522980D03*
X498520Y548380D03*
X523920Y522980D03*
X523920Y548380D03*
X549320Y522980D03*
X549320Y548380D03*
D16*
X355640Y952480D03*
D12*
X381040Y952480D03*
X406440Y952480D03*
X431840Y952480D03*
X457240Y952480D03*
X482640Y952480D03*
X508040Y952480D03*
X533440Y952480D03*
X558840Y952480D03*
X584240Y952480D03*
X609640Y952480D03*
X635040Y952480D03*
X660440Y952480D03*
X685840Y952480D03*
X711240Y952480D03*
X736640Y952480D03*
D17*
X300640Y947480D03*
X1050640Y947480D03*
X300640Y637480D03*
X1050640Y637480D03*
D12*
X762040Y952480D03*
X787440Y952480D03*
D18*
X772160Y332740D03*
D19*
X772160Y307340D03*
X772160Y281940D03*
D18*
X281940Y137160D03*
D19*
X281940Y162560D03*
X243840Y162560D03*
X243840Y137160D03*
D20*
X342960Y914400D02*
X381040Y952480D01*
X175660Y914400D02*
X152800Y891540D01*
X175660Y914400D02*
X342960Y914400D01*
X152800Y891540D02*
X152800Y685400D01*
X255950Y518246D02*
X254000Y516296D01*
X254000Y406400D01*
X255950Y518246D02*
X255950Y582250D01*
X254000Y406400D02*
X330200Y330200D01*
X361100Y330200D02*
X396920Y294380D01*
X255950Y582250D02*
X152800Y685400D01*
X330200Y330200D02*
X361100Y330200D01*
X607060Y307340D02*
X772160Y307340D01*
X607060Y307340D02*
X584200Y330200D01*
X432740Y330200D01*
X396920Y294380D01*
D21*
X281940Y101600D03*
X1092200Y124460D03*
D22*
X820420Y419100D03*
D21*
X243840Y101600D03*
D20*
X361100Y228600D02*
X320720Y268980D01*
X591420Y228600D02*
X626980Y193040D01*
X591420Y228600D02*
X361100Y228600D01*
M02*
