G04 EAGLE Gerber RS-274X export*
G75*
%MOMM*%
%FSLAX34Y34*%
%LPD*%
%INSoldermask Bottom*%
%IPPOS*%
%AMOC8*
5,1,8,0,0,1.08239X$1,22.5*%
G01*
%ADD10C,0.609600*%
%ADD11C,1.168400*%
%ADD12C,4.597400*%
%ADD13C,1.552400*%
%ADD14C,2.652400*%
%ADD15C,2.112400*%
%ADD16R,1.676400X1.676400*%
%ADD17P,1.814519X8X22.500000*%
%ADD18R,1.552400X1.552400*%
%ADD19C,5.152400*%
%ADD20R,1.803400X1.803400*%
%ADD21C,1.803400*%


D10*
X1211580Y889000D02*
X1211582Y889187D01*
X1211589Y889374D01*
X1211601Y889561D01*
X1211617Y889747D01*
X1211637Y889933D01*
X1211662Y890118D01*
X1211692Y890303D01*
X1211726Y890487D01*
X1211765Y890670D01*
X1211808Y890852D01*
X1211856Y891032D01*
X1211908Y891212D01*
X1211965Y891390D01*
X1212025Y891567D01*
X1212091Y891742D01*
X1212160Y891916D01*
X1212234Y892088D01*
X1212312Y892258D01*
X1212394Y892426D01*
X1212480Y892592D01*
X1212570Y892756D01*
X1212664Y892917D01*
X1212762Y893077D01*
X1212864Y893233D01*
X1212970Y893388D01*
X1213080Y893539D01*
X1213193Y893688D01*
X1213310Y893834D01*
X1213430Y893977D01*
X1213554Y894117D01*
X1213681Y894254D01*
X1213812Y894388D01*
X1213946Y894519D01*
X1214083Y894646D01*
X1214223Y894770D01*
X1214366Y894890D01*
X1214512Y895007D01*
X1214661Y895120D01*
X1214812Y895230D01*
X1214967Y895336D01*
X1215123Y895438D01*
X1215283Y895536D01*
X1215444Y895630D01*
X1215608Y895720D01*
X1215774Y895806D01*
X1215942Y895888D01*
X1216112Y895966D01*
X1216284Y896040D01*
X1216458Y896109D01*
X1216633Y896175D01*
X1216810Y896235D01*
X1216988Y896292D01*
X1217168Y896344D01*
X1217348Y896392D01*
X1217530Y896435D01*
X1217713Y896474D01*
X1217897Y896508D01*
X1218082Y896538D01*
X1218267Y896563D01*
X1218453Y896583D01*
X1218639Y896599D01*
X1218826Y896611D01*
X1219013Y896618D01*
X1219200Y896620D01*
X1219387Y896618D01*
X1219574Y896611D01*
X1219761Y896599D01*
X1219947Y896583D01*
X1220133Y896563D01*
X1220318Y896538D01*
X1220503Y896508D01*
X1220687Y896474D01*
X1220870Y896435D01*
X1221052Y896392D01*
X1221232Y896344D01*
X1221412Y896292D01*
X1221590Y896235D01*
X1221767Y896175D01*
X1221942Y896109D01*
X1222116Y896040D01*
X1222288Y895966D01*
X1222458Y895888D01*
X1222626Y895806D01*
X1222792Y895720D01*
X1222956Y895630D01*
X1223117Y895536D01*
X1223277Y895438D01*
X1223433Y895336D01*
X1223588Y895230D01*
X1223739Y895120D01*
X1223888Y895007D01*
X1224034Y894890D01*
X1224177Y894770D01*
X1224317Y894646D01*
X1224454Y894519D01*
X1224588Y894388D01*
X1224719Y894254D01*
X1224846Y894117D01*
X1224970Y893977D01*
X1225090Y893834D01*
X1225207Y893688D01*
X1225320Y893539D01*
X1225430Y893388D01*
X1225536Y893233D01*
X1225638Y893077D01*
X1225736Y892917D01*
X1225830Y892756D01*
X1225920Y892592D01*
X1226006Y892426D01*
X1226088Y892258D01*
X1226166Y892088D01*
X1226240Y891916D01*
X1226309Y891742D01*
X1226375Y891567D01*
X1226435Y891390D01*
X1226492Y891212D01*
X1226544Y891032D01*
X1226592Y890852D01*
X1226635Y890670D01*
X1226674Y890487D01*
X1226708Y890303D01*
X1226738Y890118D01*
X1226763Y889933D01*
X1226783Y889747D01*
X1226799Y889561D01*
X1226811Y889374D01*
X1226818Y889187D01*
X1226820Y889000D01*
X1226818Y888813D01*
X1226811Y888626D01*
X1226799Y888439D01*
X1226783Y888253D01*
X1226763Y888067D01*
X1226738Y887882D01*
X1226708Y887697D01*
X1226674Y887513D01*
X1226635Y887330D01*
X1226592Y887148D01*
X1226544Y886968D01*
X1226492Y886788D01*
X1226435Y886610D01*
X1226375Y886433D01*
X1226309Y886258D01*
X1226240Y886084D01*
X1226166Y885912D01*
X1226088Y885742D01*
X1226006Y885574D01*
X1225920Y885408D01*
X1225830Y885244D01*
X1225736Y885083D01*
X1225638Y884923D01*
X1225536Y884767D01*
X1225430Y884612D01*
X1225320Y884461D01*
X1225207Y884312D01*
X1225090Y884166D01*
X1224970Y884023D01*
X1224846Y883883D01*
X1224719Y883746D01*
X1224588Y883612D01*
X1224454Y883481D01*
X1224317Y883354D01*
X1224177Y883230D01*
X1224034Y883110D01*
X1223888Y882993D01*
X1223739Y882880D01*
X1223588Y882770D01*
X1223433Y882664D01*
X1223277Y882562D01*
X1223117Y882464D01*
X1222956Y882370D01*
X1222792Y882280D01*
X1222626Y882194D01*
X1222458Y882112D01*
X1222288Y882034D01*
X1222116Y881960D01*
X1221942Y881891D01*
X1221767Y881825D01*
X1221590Y881765D01*
X1221412Y881708D01*
X1221232Y881656D01*
X1221052Y881608D01*
X1220870Y881565D01*
X1220687Y881526D01*
X1220503Y881492D01*
X1220318Y881462D01*
X1220133Y881437D01*
X1219947Y881417D01*
X1219761Y881401D01*
X1219574Y881389D01*
X1219387Y881382D01*
X1219200Y881380D01*
X1219013Y881382D01*
X1218826Y881389D01*
X1218639Y881401D01*
X1218453Y881417D01*
X1218267Y881437D01*
X1218082Y881462D01*
X1217897Y881492D01*
X1217713Y881526D01*
X1217530Y881565D01*
X1217348Y881608D01*
X1217168Y881656D01*
X1216988Y881708D01*
X1216810Y881765D01*
X1216633Y881825D01*
X1216458Y881891D01*
X1216284Y881960D01*
X1216112Y882034D01*
X1215942Y882112D01*
X1215774Y882194D01*
X1215608Y882280D01*
X1215444Y882370D01*
X1215283Y882464D01*
X1215123Y882562D01*
X1214967Y882664D01*
X1214812Y882770D01*
X1214661Y882880D01*
X1214512Y882993D01*
X1214366Y883110D01*
X1214223Y883230D01*
X1214083Y883354D01*
X1213946Y883481D01*
X1213812Y883612D01*
X1213681Y883746D01*
X1213554Y883883D01*
X1213430Y884023D01*
X1213310Y884166D01*
X1213193Y884312D01*
X1213080Y884461D01*
X1212970Y884612D01*
X1212864Y884767D01*
X1212762Y884923D01*
X1212664Y885083D01*
X1212570Y885244D01*
X1212480Y885408D01*
X1212394Y885574D01*
X1212312Y885742D01*
X1212234Y885912D01*
X1212160Y886084D01*
X1212091Y886258D01*
X1212025Y886433D01*
X1211965Y886610D01*
X1211908Y886788D01*
X1211856Y886968D01*
X1211808Y887148D01*
X1211765Y887330D01*
X1211726Y887513D01*
X1211692Y887697D01*
X1211662Y887882D01*
X1211637Y888067D01*
X1211617Y888253D01*
X1211601Y888439D01*
X1211589Y888626D01*
X1211582Y888813D01*
X1211580Y889000D01*
D11*
X1219200Y889000D03*
D10*
X1206500Y121920D02*
X1206502Y122107D01*
X1206509Y122294D01*
X1206521Y122481D01*
X1206537Y122667D01*
X1206557Y122853D01*
X1206582Y123038D01*
X1206612Y123223D01*
X1206646Y123407D01*
X1206685Y123590D01*
X1206728Y123772D01*
X1206776Y123952D01*
X1206828Y124132D01*
X1206885Y124310D01*
X1206945Y124487D01*
X1207011Y124662D01*
X1207080Y124836D01*
X1207154Y125008D01*
X1207232Y125178D01*
X1207314Y125346D01*
X1207400Y125512D01*
X1207490Y125676D01*
X1207584Y125837D01*
X1207682Y125997D01*
X1207784Y126153D01*
X1207890Y126308D01*
X1208000Y126459D01*
X1208113Y126608D01*
X1208230Y126754D01*
X1208350Y126897D01*
X1208474Y127037D01*
X1208601Y127174D01*
X1208732Y127308D01*
X1208866Y127439D01*
X1209003Y127566D01*
X1209143Y127690D01*
X1209286Y127810D01*
X1209432Y127927D01*
X1209581Y128040D01*
X1209732Y128150D01*
X1209887Y128256D01*
X1210043Y128358D01*
X1210203Y128456D01*
X1210364Y128550D01*
X1210528Y128640D01*
X1210694Y128726D01*
X1210862Y128808D01*
X1211032Y128886D01*
X1211204Y128960D01*
X1211378Y129029D01*
X1211553Y129095D01*
X1211730Y129155D01*
X1211908Y129212D01*
X1212088Y129264D01*
X1212268Y129312D01*
X1212450Y129355D01*
X1212633Y129394D01*
X1212817Y129428D01*
X1213002Y129458D01*
X1213187Y129483D01*
X1213373Y129503D01*
X1213559Y129519D01*
X1213746Y129531D01*
X1213933Y129538D01*
X1214120Y129540D01*
X1214307Y129538D01*
X1214494Y129531D01*
X1214681Y129519D01*
X1214867Y129503D01*
X1215053Y129483D01*
X1215238Y129458D01*
X1215423Y129428D01*
X1215607Y129394D01*
X1215790Y129355D01*
X1215972Y129312D01*
X1216152Y129264D01*
X1216332Y129212D01*
X1216510Y129155D01*
X1216687Y129095D01*
X1216862Y129029D01*
X1217036Y128960D01*
X1217208Y128886D01*
X1217378Y128808D01*
X1217546Y128726D01*
X1217712Y128640D01*
X1217876Y128550D01*
X1218037Y128456D01*
X1218197Y128358D01*
X1218353Y128256D01*
X1218508Y128150D01*
X1218659Y128040D01*
X1218808Y127927D01*
X1218954Y127810D01*
X1219097Y127690D01*
X1219237Y127566D01*
X1219374Y127439D01*
X1219508Y127308D01*
X1219639Y127174D01*
X1219766Y127037D01*
X1219890Y126897D01*
X1220010Y126754D01*
X1220127Y126608D01*
X1220240Y126459D01*
X1220350Y126308D01*
X1220456Y126153D01*
X1220558Y125997D01*
X1220656Y125837D01*
X1220750Y125676D01*
X1220840Y125512D01*
X1220926Y125346D01*
X1221008Y125178D01*
X1221086Y125008D01*
X1221160Y124836D01*
X1221229Y124662D01*
X1221295Y124487D01*
X1221355Y124310D01*
X1221412Y124132D01*
X1221464Y123952D01*
X1221512Y123772D01*
X1221555Y123590D01*
X1221594Y123407D01*
X1221628Y123223D01*
X1221658Y123038D01*
X1221683Y122853D01*
X1221703Y122667D01*
X1221719Y122481D01*
X1221731Y122294D01*
X1221738Y122107D01*
X1221740Y121920D01*
X1221738Y121733D01*
X1221731Y121546D01*
X1221719Y121359D01*
X1221703Y121173D01*
X1221683Y120987D01*
X1221658Y120802D01*
X1221628Y120617D01*
X1221594Y120433D01*
X1221555Y120250D01*
X1221512Y120068D01*
X1221464Y119888D01*
X1221412Y119708D01*
X1221355Y119530D01*
X1221295Y119353D01*
X1221229Y119178D01*
X1221160Y119004D01*
X1221086Y118832D01*
X1221008Y118662D01*
X1220926Y118494D01*
X1220840Y118328D01*
X1220750Y118164D01*
X1220656Y118003D01*
X1220558Y117843D01*
X1220456Y117687D01*
X1220350Y117532D01*
X1220240Y117381D01*
X1220127Y117232D01*
X1220010Y117086D01*
X1219890Y116943D01*
X1219766Y116803D01*
X1219639Y116666D01*
X1219508Y116532D01*
X1219374Y116401D01*
X1219237Y116274D01*
X1219097Y116150D01*
X1218954Y116030D01*
X1218808Y115913D01*
X1218659Y115800D01*
X1218508Y115690D01*
X1218353Y115584D01*
X1218197Y115482D01*
X1218037Y115384D01*
X1217876Y115290D01*
X1217712Y115200D01*
X1217546Y115114D01*
X1217378Y115032D01*
X1217208Y114954D01*
X1217036Y114880D01*
X1216862Y114811D01*
X1216687Y114745D01*
X1216510Y114685D01*
X1216332Y114628D01*
X1216152Y114576D01*
X1215972Y114528D01*
X1215790Y114485D01*
X1215607Y114446D01*
X1215423Y114412D01*
X1215238Y114382D01*
X1215053Y114357D01*
X1214867Y114337D01*
X1214681Y114321D01*
X1214494Y114309D01*
X1214307Y114302D01*
X1214120Y114300D01*
X1213933Y114302D01*
X1213746Y114309D01*
X1213559Y114321D01*
X1213373Y114337D01*
X1213187Y114357D01*
X1213002Y114382D01*
X1212817Y114412D01*
X1212633Y114446D01*
X1212450Y114485D01*
X1212268Y114528D01*
X1212088Y114576D01*
X1211908Y114628D01*
X1211730Y114685D01*
X1211553Y114745D01*
X1211378Y114811D01*
X1211204Y114880D01*
X1211032Y114954D01*
X1210862Y115032D01*
X1210694Y115114D01*
X1210528Y115200D01*
X1210364Y115290D01*
X1210203Y115384D01*
X1210043Y115482D01*
X1209887Y115584D01*
X1209732Y115690D01*
X1209581Y115800D01*
X1209432Y115913D01*
X1209286Y116030D01*
X1209143Y116150D01*
X1209003Y116274D01*
X1208866Y116401D01*
X1208732Y116532D01*
X1208601Y116666D01*
X1208474Y116803D01*
X1208350Y116943D01*
X1208230Y117086D01*
X1208113Y117232D01*
X1208000Y117381D01*
X1207890Y117532D01*
X1207784Y117687D01*
X1207682Y117843D01*
X1207584Y118003D01*
X1207490Y118164D01*
X1207400Y118328D01*
X1207314Y118494D01*
X1207232Y118662D01*
X1207154Y118832D01*
X1207080Y119004D01*
X1207011Y119178D01*
X1206945Y119353D01*
X1206885Y119530D01*
X1206828Y119708D01*
X1206776Y119888D01*
X1206728Y120068D01*
X1206685Y120250D01*
X1206646Y120433D01*
X1206612Y120617D01*
X1206582Y120802D01*
X1206557Y120987D01*
X1206537Y121173D01*
X1206521Y121359D01*
X1206509Y121546D01*
X1206502Y121733D01*
X1206500Y121920D01*
D11*
X1214120Y121920D03*
D10*
X43180Y889000D02*
X43182Y889187D01*
X43189Y889374D01*
X43201Y889561D01*
X43217Y889747D01*
X43237Y889933D01*
X43262Y890118D01*
X43292Y890303D01*
X43326Y890487D01*
X43365Y890670D01*
X43408Y890852D01*
X43456Y891032D01*
X43508Y891212D01*
X43565Y891390D01*
X43625Y891567D01*
X43691Y891742D01*
X43760Y891916D01*
X43834Y892088D01*
X43912Y892258D01*
X43994Y892426D01*
X44080Y892592D01*
X44170Y892756D01*
X44264Y892917D01*
X44362Y893077D01*
X44464Y893233D01*
X44570Y893388D01*
X44680Y893539D01*
X44793Y893688D01*
X44910Y893834D01*
X45030Y893977D01*
X45154Y894117D01*
X45281Y894254D01*
X45412Y894388D01*
X45546Y894519D01*
X45683Y894646D01*
X45823Y894770D01*
X45966Y894890D01*
X46112Y895007D01*
X46261Y895120D01*
X46412Y895230D01*
X46567Y895336D01*
X46723Y895438D01*
X46883Y895536D01*
X47044Y895630D01*
X47208Y895720D01*
X47374Y895806D01*
X47542Y895888D01*
X47712Y895966D01*
X47884Y896040D01*
X48058Y896109D01*
X48233Y896175D01*
X48410Y896235D01*
X48588Y896292D01*
X48768Y896344D01*
X48948Y896392D01*
X49130Y896435D01*
X49313Y896474D01*
X49497Y896508D01*
X49682Y896538D01*
X49867Y896563D01*
X50053Y896583D01*
X50239Y896599D01*
X50426Y896611D01*
X50613Y896618D01*
X50800Y896620D01*
X50987Y896618D01*
X51174Y896611D01*
X51361Y896599D01*
X51547Y896583D01*
X51733Y896563D01*
X51918Y896538D01*
X52103Y896508D01*
X52287Y896474D01*
X52470Y896435D01*
X52652Y896392D01*
X52832Y896344D01*
X53012Y896292D01*
X53190Y896235D01*
X53367Y896175D01*
X53542Y896109D01*
X53716Y896040D01*
X53888Y895966D01*
X54058Y895888D01*
X54226Y895806D01*
X54392Y895720D01*
X54556Y895630D01*
X54717Y895536D01*
X54877Y895438D01*
X55033Y895336D01*
X55188Y895230D01*
X55339Y895120D01*
X55488Y895007D01*
X55634Y894890D01*
X55777Y894770D01*
X55917Y894646D01*
X56054Y894519D01*
X56188Y894388D01*
X56319Y894254D01*
X56446Y894117D01*
X56570Y893977D01*
X56690Y893834D01*
X56807Y893688D01*
X56920Y893539D01*
X57030Y893388D01*
X57136Y893233D01*
X57238Y893077D01*
X57336Y892917D01*
X57430Y892756D01*
X57520Y892592D01*
X57606Y892426D01*
X57688Y892258D01*
X57766Y892088D01*
X57840Y891916D01*
X57909Y891742D01*
X57975Y891567D01*
X58035Y891390D01*
X58092Y891212D01*
X58144Y891032D01*
X58192Y890852D01*
X58235Y890670D01*
X58274Y890487D01*
X58308Y890303D01*
X58338Y890118D01*
X58363Y889933D01*
X58383Y889747D01*
X58399Y889561D01*
X58411Y889374D01*
X58418Y889187D01*
X58420Y889000D01*
X58418Y888813D01*
X58411Y888626D01*
X58399Y888439D01*
X58383Y888253D01*
X58363Y888067D01*
X58338Y887882D01*
X58308Y887697D01*
X58274Y887513D01*
X58235Y887330D01*
X58192Y887148D01*
X58144Y886968D01*
X58092Y886788D01*
X58035Y886610D01*
X57975Y886433D01*
X57909Y886258D01*
X57840Y886084D01*
X57766Y885912D01*
X57688Y885742D01*
X57606Y885574D01*
X57520Y885408D01*
X57430Y885244D01*
X57336Y885083D01*
X57238Y884923D01*
X57136Y884767D01*
X57030Y884612D01*
X56920Y884461D01*
X56807Y884312D01*
X56690Y884166D01*
X56570Y884023D01*
X56446Y883883D01*
X56319Y883746D01*
X56188Y883612D01*
X56054Y883481D01*
X55917Y883354D01*
X55777Y883230D01*
X55634Y883110D01*
X55488Y882993D01*
X55339Y882880D01*
X55188Y882770D01*
X55033Y882664D01*
X54877Y882562D01*
X54717Y882464D01*
X54556Y882370D01*
X54392Y882280D01*
X54226Y882194D01*
X54058Y882112D01*
X53888Y882034D01*
X53716Y881960D01*
X53542Y881891D01*
X53367Y881825D01*
X53190Y881765D01*
X53012Y881708D01*
X52832Y881656D01*
X52652Y881608D01*
X52470Y881565D01*
X52287Y881526D01*
X52103Y881492D01*
X51918Y881462D01*
X51733Y881437D01*
X51547Y881417D01*
X51361Y881401D01*
X51174Y881389D01*
X50987Y881382D01*
X50800Y881380D01*
X50613Y881382D01*
X50426Y881389D01*
X50239Y881401D01*
X50053Y881417D01*
X49867Y881437D01*
X49682Y881462D01*
X49497Y881492D01*
X49313Y881526D01*
X49130Y881565D01*
X48948Y881608D01*
X48768Y881656D01*
X48588Y881708D01*
X48410Y881765D01*
X48233Y881825D01*
X48058Y881891D01*
X47884Y881960D01*
X47712Y882034D01*
X47542Y882112D01*
X47374Y882194D01*
X47208Y882280D01*
X47044Y882370D01*
X46883Y882464D01*
X46723Y882562D01*
X46567Y882664D01*
X46412Y882770D01*
X46261Y882880D01*
X46112Y882993D01*
X45966Y883110D01*
X45823Y883230D01*
X45683Y883354D01*
X45546Y883481D01*
X45412Y883612D01*
X45281Y883746D01*
X45154Y883883D01*
X45030Y884023D01*
X44910Y884166D01*
X44793Y884312D01*
X44680Y884461D01*
X44570Y884612D01*
X44464Y884767D01*
X44362Y884923D01*
X44264Y885083D01*
X44170Y885244D01*
X44080Y885408D01*
X43994Y885574D01*
X43912Y885742D01*
X43834Y885912D01*
X43760Y886084D01*
X43691Y886258D01*
X43625Y886433D01*
X43565Y886610D01*
X43508Y886788D01*
X43456Y886968D01*
X43408Y887148D01*
X43365Y887330D01*
X43326Y887513D01*
X43292Y887697D01*
X43262Y887882D01*
X43237Y888067D01*
X43217Y888253D01*
X43201Y888439D01*
X43189Y888626D01*
X43182Y888813D01*
X43180Y889000D01*
D11*
X50800Y889000D03*
D12*
X50800Y50800D03*
X1219200Y50800D03*
X1219200Y965200D03*
X50800Y965200D03*
D13*
X576980Y193040D03*
X601980Y193040D03*
X626980Y193040D03*
D14*
X551980Y123040D03*
X651980Y123040D03*
D13*
X152800Y891540D03*
X177800Y891540D03*
X202800Y891540D03*
D14*
X127800Y821540D03*
X227800Y821540D03*
D15*
X1027700Y428860D03*
X1027700Y378860D03*
X902700Y378860D03*
X902700Y428860D03*
D16*
X117520Y268980D03*
D17*
X117520Y294380D03*
X142920Y268980D03*
X142920Y294380D03*
X168320Y268980D03*
X168320Y294380D03*
X193720Y268980D03*
X193720Y294380D03*
X219120Y268980D03*
X219120Y294380D03*
X244520Y268980D03*
X244520Y294380D03*
X269920Y268980D03*
X269920Y294380D03*
X295320Y268980D03*
X295320Y294380D03*
X320720Y268980D03*
X320720Y294380D03*
X346120Y268980D03*
X346120Y294380D03*
X371520Y268980D03*
X371520Y294380D03*
X396920Y268980D03*
X396920Y294380D03*
X422320Y268980D03*
X422320Y294380D03*
X447720Y268980D03*
X447720Y294380D03*
X473120Y268980D03*
X473120Y294380D03*
X498520Y268980D03*
X498520Y294380D03*
X523920Y268980D03*
X523920Y294380D03*
X549320Y268980D03*
X549320Y294380D03*
D16*
X117520Y522980D03*
D17*
X117520Y548380D03*
X142920Y522980D03*
X142920Y548380D03*
X168320Y522980D03*
X168320Y548380D03*
X193720Y522980D03*
X193720Y548380D03*
X219120Y522980D03*
X219120Y548380D03*
X244520Y522980D03*
X244520Y548380D03*
X269920Y522980D03*
X269920Y548380D03*
X295320Y522980D03*
X295320Y548380D03*
X320720Y522980D03*
X320720Y548380D03*
X346120Y522980D03*
X346120Y548380D03*
X371520Y522980D03*
X371520Y548380D03*
X396920Y522980D03*
X396920Y548380D03*
X422320Y522980D03*
X422320Y548380D03*
X447720Y522980D03*
X447720Y548380D03*
X473120Y522980D03*
X473120Y548380D03*
X498520Y522980D03*
X498520Y548380D03*
X523920Y522980D03*
X523920Y548380D03*
X549320Y522980D03*
X549320Y548380D03*
D18*
X355640Y952480D03*
D13*
X381040Y952480D03*
X406440Y952480D03*
X431840Y952480D03*
X457240Y952480D03*
X482640Y952480D03*
X508040Y952480D03*
X533440Y952480D03*
X558840Y952480D03*
X584240Y952480D03*
X609640Y952480D03*
X635040Y952480D03*
X660440Y952480D03*
X685840Y952480D03*
X711240Y952480D03*
X736640Y952480D03*
D19*
X300640Y947480D03*
X1050640Y947480D03*
X300640Y637480D03*
X1050640Y637480D03*
D13*
X762040Y952480D03*
X787440Y952480D03*
D20*
X772160Y332740D03*
D21*
X772160Y307340D03*
X772160Y281940D03*
D20*
X281940Y137160D03*
D21*
X281940Y162560D03*
X243840Y162560D03*
X243840Y137160D03*
M02*
