M48
;GenerationSoftware,Autodesk,EAGLE,9.6.2*%
;CreationDate,2023-12-14T03:07:34Z*%
FMAT,2
ICI,OFF
METRIC,TZ,000.000
T7C0.305
T6C0.350
T5C0.889
T4C1.000
T3C1.400
T2C2.500
T1C3.175
%
G90
M71
T1
X5080Y96520
X5080Y5080
X121920Y5080
X121920Y96520
T2
X55198Y12304
X65198Y12304
X12780Y82154
X22780Y82154
X30064Y94748
X105064Y94748
X30064Y63748
X105064Y63748
T3
X90270Y37886
X102770Y42886
X102770Y37886
X90270Y42886
T4
X62698Y19304
X68584Y95248
X17780Y89154
X20280Y89154
X15280Y89154
X40644Y95248
X43184Y95248
X45724Y95248
X48264Y95248
X50804Y95248
X53344Y95248
X55884Y95248
X58424Y95248
X60964Y95248
X63504Y95248
X66044Y95248
X71124Y95248
X73664Y95248
X38104Y95248
X35564Y95248
X57698Y19304
X60198Y19304
X76204Y95248
X78744Y95248
T5
X34612Y26898
X34612Y29438
X37152Y26898
X37152Y29438
X39692Y26898
X39692Y29438
X42232Y26898
X42232Y29438
X44772Y26898
X44772Y29438
X47312Y26898
X47312Y29438
X49852Y26898
X49852Y29438
X52392Y26898
X52392Y29438
X54932Y26898
X54932Y29438
X11752Y52298
X11752Y54838
X14292Y52298
X14292Y54838
X16832Y52298
X16832Y54838
X19372Y52298
X19372Y54838
X21912Y52298
X21912Y54838
X24452Y52298
X24452Y54838
X26992Y52298
X26992Y54838
X29532Y52298
X29532Y54838
X32072Y52298
X32072Y54838
X34612Y52298
X34612Y54838
X37152Y52298
X37152Y54838
X39692Y52298
X39692Y54838
X42232Y52298
X42232Y54838
X44772Y52298
X44772Y54838
X47312Y52298
X47312Y54838
X49852Y52298
X49852Y54838
X52392Y52298
X52392Y54838
X54932Y54838
X21912Y26898
X11752Y26898
X11752Y29438
X14292Y26898
X14292Y29438
X16832Y26898
X16832Y29438
X19372Y26898
X19372Y29438
X21912Y29438
X54932Y52298
X24452Y26898
X24452Y29438
X26992Y26898
X26992Y29438
X29532Y26898
X29532Y29438
X32072Y26898
X32072Y29438
X77216Y33274
X77216Y30734
X77216Y28194
X28194Y13716
X28194Y16256
X24384Y16256
X24384Y13716
T6
X109220Y12446
X28194Y10160
X24384Y10160
T7
X82042Y41910
M30