G04 EAGLE Gerber RS-274X export*
G75*
%MOMM*%
%FSLAX34Y34*%
%LPD*%
%INTop Copper*%
%IPPOS*%
%AMOC8*
5,1,8,0,0,1.08239X$1,22.5*%
G01*
%ADD10C,1.016000*%
%ADD11C,4.445000*%
%ADD12R,1.031241X0.949959*%
%ADD13C,1.400000*%
%ADD14R,0.949959X1.031241*%
%ADD15C,1.960000*%
%ADD16R,1.524000X1.524000*%
%ADD17P,1.649562X8X22.500000*%
%ADD18R,1.400000X1.400000*%
%ADD19C,5.000000*%
%ADD20R,1.651000X1.651000*%
%ADD21C,1.651000*%
%ADD22C,0.254000*%
%ADD23C,0.654800*%
%ADD24C,0.609600*%

G36*
X1266104Y2556D02*
X1266104Y2556D01*
X1266224Y2563D01*
X1266261Y2576D01*
X1266301Y2581D01*
X1266412Y2625D01*
X1266526Y2662D01*
X1266560Y2683D01*
X1266596Y2698D01*
X1266694Y2768D01*
X1266795Y2832D01*
X1266822Y2861D01*
X1266854Y2884D01*
X1266930Y2977D01*
X1267012Y3064D01*
X1267031Y3099D01*
X1267057Y3129D01*
X1267108Y3238D01*
X1267165Y3343D01*
X1267175Y3381D01*
X1267192Y3417D01*
X1267215Y3535D01*
X1267245Y3651D01*
X1267248Y3710D01*
X1267252Y3729D01*
X1267251Y3750D01*
X1267255Y3812D01*
X1266529Y584202D01*
X1265994Y1012702D01*
X1265979Y1012819D01*
X1265972Y1012937D01*
X1265959Y1012976D01*
X1265954Y1013017D01*
X1265910Y1013127D01*
X1265874Y1013239D01*
X1265852Y1013274D01*
X1265836Y1013313D01*
X1265767Y1013408D01*
X1265704Y1013508D01*
X1265673Y1013536D01*
X1265649Y1013570D01*
X1265558Y1013645D01*
X1265472Y1013726D01*
X1265436Y1013746D01*
X1265404Y1013772D01*
X1265297Y1013822D01*
X1265193Y1013880D01*
X1265153Y1013890D01*
X1265116Y1013907D01*
X1265000Y1013929D01*
X1264885Y1013959D01*
X1264824Y1013963D01*
X1264804Y1013967D01*
X1264784Y1013966D01*
X1264725Y1013969D01*
X2545Y1013969D01*
X2426Y1013954D01*
X2306Y1013947D01*
X2269Y1013934D01*
X2229Y1013929D01*
X2118Y1013885D01*
X2004Y1013848D01*
X1970Y1013827D01*
X1934Y1013812D01*
X1836Y1013742D01*
X1735Y1013678D01*
X1708Y1013649D01*
X1676Y1013626D01*
X1600Y1013533D01*
X1518Y1013446D01*
X1499Y1013411D01*
X1473Y1013381D01*
X1422Y1013272D01*
X1365Y1013167D01*
X1355Y1013129D01*
X1338Y1013093D01*
X1315Y1012975D01*
X1285Y1012859D01*
X1282Y1012800D01*
X1278Y1012781D01*
X1279Y1012760D01*
X1275Y1012698D01*
X1779Y609598D01*
X2536Y3808D01*
X2551Y3691D01*
X2558Y3573D01*
X2571Y3534D01*
X2576Y3493D01*
X2620Y3383D01*
X2656Y3271D01*
X2678Y3236D01*
X2694Y3197D01*
X2763Y3102D01*
X2826Y3002D01*
X2857Y2974D01*
X2881Y2940D01*
X2972Y2865D01*
X3058Y2784D01*
X3094Y2764D01*
X3126Y2738D01*
X3233Y2688D01*
X3337Y2630D01*
X3377Y2620D01*
X3414Y2603D01*
X3530Y2581D01*
X3645Y2551D01*
X3706Y2547D01*
X3726Y2543D01*
X3746Y2544D01*
X3805Y2541D01*
X1265985Y2541D01*
X1266104Y2556D01*
G37*
%LPC*%
G36*
X1168400Y102869D02*
X1168400Y102869D01*
X1168282Y102854D01*
X1168163Y102847D01*
X1168125Y102834D01*
X1168084Y102829D01*
X1167974Y102786D01*
X1167861Y102749D01*
X1167826Y102727D01*
X1167789Y102712D01*
X1167693Y102643D01*
X1167592Y102579D01*
X1167564Y102549D01*
X1167531Y102526D01*
X1167456Y102434D01*
X1167374Y102347D01*
X1167354Y102312D01*
X1167329Y102281D01*
X1167278Y102173D01*
X1167220Y102069D01*
X1167210Y102029D01*
X1167193Y101993D01*
X1167171Y101876D01*
X1167141Y101761D01*
X1167137Y101701D01*
X1167133Y101681D01*
X1167135Y101660D01*
X1167131Y101600D01*
X1167131Y26669D01*
X102869Y26669D01*
X102869Y63936D01*
X102857Y64034D01*
X102854Y64133D01*
X102837Y64191D01*
X102829Y64251D01*
X102793Y64343D01*
X102765Y64439D01*
X102735Y64491D01*
X102712Y64547D01*
X102654Y64627D01*
X102604Y64712D01*
X102538Y64788D01*
X102526Y64804D01*
X102516Y64812D01*
X102498Y64833D01*
X64833Y102498D01*
X64755Y102558D01*
X64683Y102626D01*
X64630Y102655D01*
X64582Y102692D01*
X64491Y102732D01*
X64404Y102780D01*
X64346Y102795D01*
X64290Y102819D01*
X64192Y102834D01*
X64097Y102859D01*
X63996Y102865D01*
X63976Y102869D01*
X63964Y102867D01*
X63936Y102869D01*
X26669Y102869D01*
X26669Y140136D01*
X26657Y140234D01*
X26654Y140333D01*
X26637Y140391D01*
X26629Y140451D01*
X26593Y140543D01*
X26565Y140639D01*
X26535Y140691D01*
X26512Y140747D01*
X26454Y140827D01*
X26404Y140912D01*
X26338Y140988D01*
X26326Y141004D01*
X26316Y141012D01*
X26298Y141033D01*
X24193Y143138D01*
X21589Y145742D01*
X21589Y466398D01*
X26297Y471107D01*
X26358Y471185D01*
X26426Y471257D01*
X26455Y471310D01*
X26492Y471358D01*
X26532Y471449D01*
X26580Y471536D01*
X26595Y471594D01*
X26619Y471650D01*
X26634Y471748D01*
X26659Y471843D01*
X26665Y471944D01*
X26669Y471964D01*
X26667Y471976D01*
X26669Y472004D01*
X26669Y609600D01*
X26669Y913131D01*
X89336Y913131D01*
X89434Y913143D01*
X89533Y913146D01*
X89591Y913163D01*
X89651Y913171D01*
X89743Y913207D01*
X89839Y913235D01*
X89891Y913265D01*
X89947Y913288D01*
X90027Y913346D01*
X90112Y913396D01*
X90188Y913462D01*
X90204Y913474D01*
X90212Y913484D01*
X90233Y913503D01*
X102498Y925767D01*
X102558Y925845D01*
X102626Y925917D01*
X102655Y925970D01*
X102692Y926018D01*
X102732Y926109D01*
X102780Y926196D01*
X102795Y926254D01*
X102819Y926310D01*
X102834Y926408D01*
X102859Y926503D01*
X102865Y926604D01*
X102869Y926624D01*
X102867Y926636D01*
X102869Y926664D01*
X102869Y989331D01*
X165536Y989331D01*
X165634Y989343D01*
X165733Y989346D01*
X165791Y989363D01*
X165851Y989371D01*
X165943Y989407D01*
X166039Y989435D01*
X166091Y989465D01*
X166147Y989488D01*
X166227Y989546D01*
X166312Y989596D01*
X166388Y989662D01*
X166404Y989674D01*
X166412Y989684D01*
X166433Y989703D01*
X171142Y994411D01*
X809298Y994411D01*
X814007Y989703D01*
X814085Y989642D01*
X814157Y989574D01*
X814210Y989545D01*
X814258Y989508D01*
X814349Y989468D01*
X814436Y989420D01*
X814494Y989405D01*
X814550Y989381D01*
X814648Y989366D01*
X814743Y989341D01*
X814844Y989335D01*
X814864Y989331D01*
X814876Y989333D01*
X814904Y989331D01*
X1167131Y989331D01*
X1167131Y914400D01*
X1167146Y914282D01*
X1167153Y914163D01*
X1167166Y914125D01*
X1167171Y914084D01*
X1167214Y913974D01*
X1167251Y913861D01*
X1167273Y913826D01*
X1167288Y913789D01*
X1167358Y913693D01*
X1167421Y913592D01*
X1167451Y913564D01*
X1167474Y913531D01*
X1167566Y913456D01*
X1167653Y913374D01*
X1167688Y913354D01*
X1167719Y913329D01*
X1167827Y913278D01*
X1167931Y913220D01*
X1167971Y913210D01*
X1168007Y913193D01*
X1168124Y913171D01*
X1168239Y913141D01*
X1168300Y913137D01*
X1168320Y913133D01*
X1168340Y913135D01*
X1168400Y913131D01*
X1243331Y913131D01*
X1243331Y102869D01*
X1168400Y102869D01*
G37*
%LPD*%
%LPC*%
G36*
X53339Y967739D02*
X53339Y967739D01*
X53339Y989836D01*
X54955Y989654D01*
X57667Y989035D01*
X60292Y988117D01*
X62799Y986910D01*
X65154Y985430D01*
X67329Y983695D01*
X69295Y981729D01*
X71030Y979554D01*
X72510Y977199D01*
X73717Y974692D01*
X74635Y972067D01*
X75254Y969355D01*
X75436Y967739D01*
X53339Y967739D01*
G37*
%LPD*%
%LPC*%
G36*
X1221739Y967739D02*
X1221739Y967739D01*
X1221739Y989836D01*
X1223355Y989654D01*
X1226067Y989035D01*
X1228692Y988117D01*
X1231199Y986910D01*
X1233554Y985430D01*
X1235729Y983695D01*
X1237695Y981729D01*
X1239430Y979554D01*
X1240910Y977199D01*
X1242117Y974692D01*
X1243035Y972067D01*
X1243654Y969355D01*
X1243836Y967739D01*
X1221739Y967739D01*
G37*
%LPD*%
%LPC*%
G36*
X53339Y53339D02*
X53339Y53339D01*
X53339Y75436D01*
X54955Y75254D01*
X57667Y74635D01*
X60292Y73717D01*
X62799Y72510D01*
X65154Y71030D01*
X67329Y69295D01*
X69295Y67329D01*
X71030Y65154D01*
X72510Y62799D01*
X73717Y60292D01*
X74635Y57667D01*
X75254Y54955D01*
X75436Y53339D01*
X53339Y53339D01*
G37*
%LPD*%
%LPC*%
G36*
X1221739Y53339D02*
X1221739Y53339D01*
X1221739Y75436D01*
X1223355Y75254D01*
X1226067Y74635D01*
X1228692Y73717D01*
X1231199Y72510D01*
X1233554Y71030D01*
X1235729Y69295D01*
X1237695Y67329D01*
X1239430Y65154D01*
X1240910Y62799D01*
X1242117Y60292D01*
X1243035Y57667D01*
X1243654Y54955D01*
X1243836Y53339D01*
X1221739Y53339D01*
G37*
%LPD*%
%LPC*%
G36*
X1194564Y967739D02*
X1194564Y967739D01*
X1194746Y969355D01*
X1195365Y972067D01*
X1196283Y974692D01*
X1197490Y977199D01*
X1198970Y979554D01*
X1200705Y981729D01*
X1202671Y983695D01*
X1204846Y985430D01*
X1207201Y986910D01*
X1209708Y988117D01*
X1212333Y989035D01*
X1215045Y989654D01*
X1216661Y989836D01*
X1216661Y967739D01*
X1194564Y967739D01*
G37*
%LPD*%
%LPC*%
G36*
X26164Y967739D02*
X26164Y967739D01*
X26346Y969355D01*
X26965Y972067D01*
X27883Y974692D01*
X29090Y977199D01*
X30570Y979554D01*
X32305Y981729D01*
X34271Y983695D01*
X36446Y985430D01*
X38801Y986910D01*
X41308Y988117D01*
X43933Y989035D01*
X46645Y989654D01*
X48261Y989836D01*
X48261Y967739D01*
X26164Y967739D01*
G37*
%LPD*%
%LPC*%
G36*
X53339Y962661D02*
X53339Y962661D01*
X75436Y962661D01*
X75254Y961045D01*
X74635Y958333D01*
X73717Y955708D01*
X72510Y953201D01*
X71030Y950846D01*
X69295Y948671D01*
X67329Y946705D01*
X65154Y944970D01*
X62799Y943490D01*
X60292Y942283D01*
X57667Y941365D01*
X54955Y940746D01*
X53339Y940564D01*
X53339Y962661D01*
G37*
%LPD*%
%LPC*%
G36*
X1221739Y962661D02*
X1221739Y962661D01*
X1243836Y962661D01*
X1243654Y961045D01*
X1243035Y958333D01*
X1242117Y955708D01*
X1240910Y953201D01*
X1239430Y950846D01*
X1237695Y948671D01*
X1235729Y946705D01*
X1233554Y944970D01*
X1231199Y943490D01*
X1228692Y942283D01*
X1226067Y941365D01*
X1223355Y940746D01*
X1221739Y940564D01*
X1221739Y962661D01*
G37*
%LPD*%
%LPC*%
G36*
X26164Y53339D02*
X26164Y53339D01*
X26346Y54955D01*
X26965Y57667D01*
X27883Y60292D01*
X29090Y62799D01*
X30570Y65154D01*
X32305Y67329D01*
X34271Y69295D01*
X36446Y71030D01*
X38801Y72510D01*
X41308Y73717D01*
X43933Y74635D01*
X46645Y75254D01*
X48261Y75436D01*
X48261Y53339D01*
X26164Y53339D01*
G37*
%LPD*%
%LPC*%
G36*
X1194564Y53339D02*
X1194564Y53339D01*
X1194746Y54955D01*
X1195365Y57667D01*
X1196283Y60292D01*
X1197490Y62799D01*
X1198970Y65154D01*
X1200705Y67329D01*
X1202671Y69295D01*
X1204846Y71030D01*
X1207201Y72510D01*
X1209708Y73717D01*
X1212333Y74635D01*
X1215045Y75254D01*
X1216661Y75436D01*
X1216661Y53339D01*
X1194564Y53339D01*
G37*
%LPD*%
%LPC*%
G36*
X1221739Y48261D02*
X1221739Y48261D01*
X1243836Y48261D01*
X1243654Y46645D01*
X1243035Y43933D01*
X1242117Y41308D01*
X1240910Y38801D01*
X1239430Y36446D01*
X1237695Y34271D01*
X1235729Y32305D01*
X1233554Y30570D01*
X1231199Y29090D01*
X1228692Y27883D01*
X1226067Y26965D01*
X1223355Y26346D01*
X1221739Y26164D01*
X1221739Y48261D01*
G37*
%LPD*%
%LPC*%
G36*
X53339Y48261D02*
X53339Y48261D01*
X75436Y48261D01*
X75254Y46645D01*
X74635Y43933D01*
X73717Y41308D01*
X72510Y38801D01*
X71030Y36446D01*
X69295Y34271D01*
X67329Y32305D01*
X65154Y30570D01*
X62799Y29090D01*
X60292Y27883D01*
X57667Y26965D01*
X54955Y26346D01*
X53339Y26164D01*
X53339Y48261D01*
G37*
%LPD*%
%LPC*%
G36*
X1215045Y940746D02*
X1215045Y940746D01*
X1212333Y941365D01*
X1209708Y942283D01*
X1207201Y943490D01*
X1204846Y944970D01*
X1202671Y946705D01*
X1200705Y948671D01*
X1198970Y950846D01*
X1197490Y953201D01*
X1196283Y955708D01*
X1195365Y958333D01*
X1194746Y961045D01*
X1194564Y962661D01*
X1216661Y962661D01*
X1216661Y940564D01*
X1215045Y940746D01*
G37*
%LPD*%
%LPC*%
G36*
X46645Y940746D02*
X46645Y940746D01*
X43933Y941365D01*
X41308Y942283D01*
X38801Y943490D01*
X36446Y944970D01*
X34271Y946705D01*
X32305Y948671D01*
X30570Y950846D01*
X29090Y953201D01*
X27883Y955708D01*
X26965Y958333D01*
X26346Y961045D01*
X26164Y962661D01*
X48261Y962661D01*
X48261Y940564D01*
X46645Y940746D01*
G37*
%LPD*%
%LPC*%
G36*
X1215045Y26346D02*
X1215045Y26346D01*
X1212333Y26965D01*
X1209708Y27883D01*
X1207201Y29090D01*
X1204846Y30570D01*
X1202671Y32305D01*
X1200705Y34271D01*
X1198970Y36446D01*
X1197490Y38801D01*
X1196283Y41308D01*
X1195365Y43933D01*
X1194746Y46645D01*
X1194564Y48261D01*
X1216661Y48261D01*
X1216661Y26164D01*
X1215045Y26346D01*
G37*
%LPD*%
%LPC*%
G36*
X46645Y26346D02*
X46645Y26346D01*
X43933Y26965D01*
X41308Y27883D01*
X38801Y29090D01*
X36446Y30570D01*
X34271Y32305D01*
X32305Y34271D01*
X30570Y36446D01*
X29090Y38801D01*
X27883Y41308D01*
X26965Y43933D01*
X26346Y46645D01*
X26164Y48261D01*
X48261Y48261D01*
X48261Y26164D01*
X46645Y26346D01*
G37*
%LPD*%
%LPC*%
G36*
X1219199Y965199D02*
X1219199Y965199D01*
X1219199Y965201D01*
X1219201Y965201D01*
X1219201Y965199D01*
X1219199Y965199D01*
G37*
%LPD*%
%LPC*%
G36*
X50799Y965199D02*
X50799Y965199D01*
X50799Y965201D01*
X50801Y965201D01*
X50801Y965199D01*
X50799Y965199D01*
G37*
%LPD*%
%LPC*%
G36*
X1219199Y50799D02*
X1219199Y50799D01*
X1219199Y50801D01*
X1219201Y50801D01*
X1219201Y50799D01*
X1219199Y50799D01*
G37*
%LPD*%
%LPC*%
G36*
X50799Y50799D02*
X50799Y50799D01*
X50799Y50801D01*
X50801Y50801D01*
X50801Y50799D01*
X50799Y50799D01*
G37*
%LPD*%
D10*
X1214120Y121920D03*
X1219200Y889000D03*
X50800Y889000D03*
D11*
X50800Y50800D03*
X1219200Y50800D03*
X1219200Y965200D03*
X50800Y965200D03*
D12*
X1092200Y112141D03*
X1092200Y96139D03*
D13*
X576980Y193040D03*
X601980Y193040D03*
X626980Y193040D03*
D14*
X820039Y434340D03*
X836041Y434340D03*
D13*
X152800Y891540D03*
X177800Y891540D03*
X202800Y891540D03*
D15*
X1027700Y428860D03*
X1027700Y378860D03*
X902700Y378860D03*
X902700Y428860D03*
D16*
X117520Y268980D03*
D17*
X117520Y294380D03*
X142920Y268980D03*
X142920Y294380D03*
X168320Y268980D03*
X168320Y294380D03*
X193720Y268980D03*
X193720Y294380D03*
X219120Y268980D03*
X219120Y294380D03*
X244520Y268980D03*
X244520Y294380D03*
X269920Y268980D03*
X269920Y294380D03*
X295320Y268980D03*
X295320Y294380D03*
X320720Y268980D03*
X320720Y294380D03*
X346120Y268980D03*
X346120Y294380D03*
X371520Y268980D03*
X371520Y294380D03*
X396920Y268980D03*
X396920Y294380D03*
X422320Y268980D03*
X422320Y294380D03*
X447720Y268980D03*
X447720Y294380D03*
X473120Y268980D03*
X473120Y294380D03*
X498520Y268980D03*
X498520Y294380D03*
X523920Y268980D03*
X523920Y294380D03*
X549320Y268980D03*
X549320Y294380D03*
D16*
X117520Y522980D03*
D17*
X117520Y548380D03*
X142920Y522980D03*
X142920Y548380D03*
X168320Y522980D03*
X168320Y548380D03*
X193720Y522980D03*
X193720Y548380D03*
X219120Y522980D03*
X219120Y548380D03*
X244520Y522980D03*
X244520Y548380D03*
X269920Y522980D03*
X269920Y548380D03*
X295320Y522980D03*
X295320Y548380D03*
X320720Y522980D03*
X320720Y548380D03*
X346120Y522980D03*
X346120Y548380D03*
X371520Y522980D03*
X371520Y548380D03*
X396920Y522980D03*
X396920Y548380D03*
X422320Y522980D03*
X422320Y548380D03*
X447720Y522980D03*
X447720Y548380D03*
X473120Y522980D03*
X473120Y548380D03*
X498520Y522980D03*
X498520Y548380D03*
X523920Y522980D03*
X523920Y548380D03*
X549320Y522980D03*
X549320Y548380D03*
D18*
X355640Y952480D03*
D13*
X381040Y952480D03*
X406440Y952480D03*
X431840Y952480D03*
X457240Y952480D03*
X482640Y952480D03*
X508040Y952480D03*
X533440Y952480D03*
X558840Y952480D03*
X584240Y952480D03*
X609640Y952480D03*
X635040Y952480D03*
X660440Y952480D03*
X685840Y952480D03*
X711240Y952480D03*
X736640Y952480D03*
D19*
X300640Y947480D03*
X1050640Y947480D03*
X300640Y637480D03*
X1050640Y637480D03*
D13*
X762040Y952480D03*
X787440Y952480D03*
D20*
X772160Y332740D03*
D21*
X772160Y307340D03*
X772160Y281940D03*
D20*
X281940Y137160D03*
D21*
X281940Y162560D03*
X243840Y162560D03*
X243840Y137160D03*
D22*
X281940Y137160D02*
X281940Y101600D01*
D23*
X281940Y101600D03*
D22*
X1092200Y112141D02*
X1092200Y124460D01*
D23*
X1092200Y124460D03*
D22*
X587680Y332740D02*
X549320Y294380D01*
X587680Y332740D02*
X772160Y332740D01*
X820039Y434340D02*
X820420Y434340D01*
D24*
X820420Y419100D03*
D22*
X820039Y419481D01*
X820039Y434340D01*
X243840Y137160D02*
X243840Y101600D01*
D23*
X243840Y101600D03*
D22*
X574040Y220980D02*
X601980Y193040D01*
X574040Y220980D02*
X370840Y220980D01*
X346120Y245700D01*
X346120Y268980D01*
X168320Y485820D02*
X168320Y522980D01*
X157480Y162560D02*
X243840Y162560D01*
X60960Y378460D02*
X168320Y485820D01*
X60960Y378460D02*
X60960Y259080D01*
X157480Y162560D01*
X193720Y483280D02*
X193720Y522980D01*
X83820Y373380D02*
X83820Y279400D01*
X160020Y203200D01*
X246380Y203200D01*
X281940Y167640D01*
X281940Y162560D01*
X83820Y373380D02*
X193720Y483280D01*
X835333Y434340D02*
X836041Y434340D01*
X897220Y434340D01*
X902700Y428860D01*
X928500Y454660D01*
X1001900Y454660D02*
X1027700Y428860D01*
X1001900Y454660D02*
X928500Y454660D01*
X836041Y434340D02*
X836041Y208661D01*
X688340Y60960D02*
X111760Y60960D01*
X25400Y147320D01*
X25400Y464820D01*
X97530Y536950D01*
X184485Y548380D02*
X193720Y548380D01*
X184485Y548380D02*
X173055Y536950D01*
X97530Y536950D01*
X688340Y60960D02*
X836041Y208661D01*
X1092200Y96139D02*
X1173861Y96139D01*
X1219200Y50800D01*
X190500Y904240D02*
X177800Y891540D01*
X190500Y904240D02*
X378460Y904240D01*
X406440Y932220D01*
X406440Y952480D01*
X431840Y952480D02*
X431840Y927140D01*
X205740Y701040D01*
X205740Y388620D01*
X117520Y323260D02*
X117520Y294380D01*
X117520Y323260D02*
X154940Y360680D01*
X177800Y360680D01*
X205740Y388620D01*
X180340Y332740D02*
X154940Y332740D01*
X142920Y320720D01*
X142920Y294380D01*
X231140Y700980D02*
X482640Y952480D01*
X231140Y700980D02*
X231140Y383540D01*
X180340Y332740D01*
X396240Y739080D02*
X609640Y952480D01*
X396240Y623900D02*
X320720Y548380D01*
X396240Y623900D02*
X396240Y739080D01*
X416560Y734000D02*
X635040Y952480D01*
X416560Y618820D02*
X346120Y548380D01*
X416560Y618820D02*
X416560Y734000D01*
X436880Y728920D02*
X660440Y952480D01*
X436880Y613740D02*
X371520Y548380D01*
X436880Y613740D02*
X436880Y728920D01*
X454660Y721300D02*
X685840Y952480D01*
X454660Y606120D02*
X396920Y548380D01*
X454660Y606120D02*
X454660Y721300D01*
X736640Y952480D02*
X764560Y924560D01*
X797560Y924560D01*
X817880Y944880D01*
X817880Y980440D02*
X807720Y990600D01*
X172720Y990600D01*
X117520Y644480D02*
X117520Y548380D01*
X817880Y944880D02*
X817880Y980440D01*
X172720Y990600D02*
X63500Y881380D01*
X63500Y698500D01*
X117520Y644480D01*
X762040Y952480D02*
X777260Y937260D01*
X795020Y937260D01*
X802640Y944880D01*
X802640Y977900D01*
X795020Y985520D01*
X142920Y647020D02*
X142920Y548380D01*
X190500Y985520D02*
X795020Y985520D01*
X190500Y985520D02*
X78740Y873760D01*
X78740Y711200D01*
X142920Y647020D01*
X787440Y952480D02*
X787440Y975320D01*
X205740Y980440D02*
X93980Y868680D01*
X93980Y718820D01*
X168320Y644480D02*
X168320Y548380D01*
X782320Y980440D02*
X787440Y975320D01*
X782320Y980440D02*
X205740Y980440D01*
X93980Y718820D02*
X168320Y644480D01*
M02*
