G04 EAGLE Gerber RS-274X export*
G75*
%MOMM*%
%FSLAX34Y34*%
%LPD*%
%INCopper Layer 15*%
%IPPOS*%
%AMOC8*
5,1,8,0,0,1.08239X$1,22.5*%
G01*
%ADD10C,4.191000*%
%ADD11C,1.400000*%
%ADD12C,1.960000*%
%ADD13C,1.244600*%
%ADD14C,3.500000*%
%ADD15C,0.654800*%
%ADD16C,0.609600*%

G36*
X1266104Y2556D02*
X1266104Y2556D01*
X1266224Y2563D01*
X1266261Y2576D01*
X1266301Y2581D01*
X1266412Y2625D01*
X1266526Y2662D01*
X1266560Y2683D01*
X1266596Y2698D01*
X1266694Y2768D01*
X1266795Y2832D01*
X1266822Y2861D01*
X1266854Y2884D01*
X1266930Y2977D01*
X1267012Y3064D01*
X1267031Y3099D01*
X1267057Y3129D01*
X1267108Y3238D01*
X1267165Y3343D01*
X1267175Y3381D01*
X1267192Y3417D01*
X1267215Y3535D01*
X1267245Y3651D01*
X1267248Y3710D01*
X1267252Y3729D01*
X1267251Y3750D01*
X1267255Y3812D01*
X1265994Y1012702D01*
X1265979Y1012819D01*
X1265972Y1012937D01*
X1265959Y1012976D01*
X1265954Y1013017D01*
X1265910Y1013127D01*
X1265874Y1013239D01*
X1265852Y1013274D01*
X1265836Y1013313D01*
X1265767Y1013408D01*
X1265704Y1013508D01*
X1265673Y1013536D01*
X1265649Y1013570D01*
X1265558Y1013645D01*
X1265472Y1013726D01*
X1265436Y1013746D01*
X1265404Y1013772D01*
X1265297Y1013822D01*
X1265193Y1013880D01*
X1265153Y1013890D01*
X1265116Y1013907D01*
X1265000Y1013929D01*
X1264885Y1013959D01*
X1264824Y1013963D01*
X1264804Y1013967D01*
X1264784Y1013966D01*
X1264725Y1013969D01*
X2545Y1013969D01*
X2426Y1013954D01*
X2306Y1013947D01*
X2269Y1013934D01*
X2229Y1013929D01*
X2118Y1013885D01*
X2004Y1013848D01*
X1970Y1013827D01*
X1934Y1013812D01*
X1836Y1013742D01*
X1735Y1013678D01*
X1708Y1013649D01*
X1676Y1013626D01*
X1600Y1013533D01*
X1518Y1013446D01*
X1499Y1013411D01*
X1473Y1013381D01*
X1422Y1013272D01*
X1365Y1013167D01*
X1355Y1013129D01*
X1338Y1013093D01*
X1315Y1012975D01*
X1285Y1012859D01*
X1282Y1012800D01*
X1278Y1012781D01*
X1279Y1012760D01*
X1275Y1012698D01*
X2536Y3808D01*
X2551Y3691D01*
X2558Y3573D01*
X2571Y3534D01*
X2576Y3493D01*
X2620Y3383D01*
X2656Y3271D01*
X2678Y3236D01*
X2694Y3197D01*
X2763Y3102D01*
X2826Y3002D01*
X2857Y2974D01*
X2881Y2940D01*
X2972Y2865D01*
X3058Y2784D01*
X3094Y2764D01*
X3126Y2738D01*
X3233Y2688D01*
X3337Y2630D01*
X3377Y2620D01*
X3414Y2603D01*
X3530Y2581D01*
X3645Y2551D01*
X3706Y2547D01*
X3726Y2543D01*
X3746Y2544D01*
X3805Y2541D01*
X1265985Y2541D01*
X1266104Y2556D01*
G37*
%LPC*%
G36*
X1214526Y941704D02*
X1214526Y941704D01*
X1205891Y945281D01*
X1199281Y951891D01*
X1195704Y960526D01*
X1195704Y969874D01*
X1199281Y978509D01*
X1205891Y985119D01*
X1214526Y988696D01*
X1223874Y988696D01*
X1232509Y985119D01*
X1239119Y978509D01*
X1242696Y969874D01*
X1242696Y960526D01*
X1239119Y951891D01*
X1232509Y945281D01*
X1223874Y941704D01*
X1214526Y941704D01*
G37*
%LPD*%
%LPC*%
G36*
X46126Y941704D02*
X46126Y941704D01*
X37491Y945281D01*
X30881Y951891D01*
X27304Y960526D01*
X27304Y969874D01*
X30881Y978509D01*
X37491Y985119D01*
X46126Y988696D01*
X55474Y988696D01*
X64109Y985119D01*
X70719Y978509D01*
X74296Y969874D01*
X74296Y960526D01*
X70719Y951891D01*
X64109Y945281D01*
X55474Y941704D01*
X46126Y941704D01*
G37*
%LPD*%
%LPC*%
G36*
X46126Y27304D02*
X46126Y27304D01*
X37491Y30881D01*
X30881Y37491D01*
X27304Y46126D01*
X27304Y55474D01*
X30881Y64109D01*
X37491Y70719D01*
X46126Y74296D01*
X55474Y74296D01*
X64109Y70719D01*
X70719Y64109D01*
X74296Y55474D01*
X74296Y46126D01*
X70719Y37491D01*
X64109Y30881D01*
X55474Y27304D01*
X46126Y27304D01*
G37*
%LPD*%
%LPC*%
G36*
X1214526Y27304D02*
X1214526Y27304D01*
X1205891Y30881D01*
X1199281Y37491D01*
X1195704Y46126D01*
X1195704Y55474D01*
X1199281Y64109D01*
X1205891Y70719D01*
X1214526Y74296D01*
X1223874Y74296D01*
X1232509Y70719D01*
X1239119Y64109D01*
X1242696Y55474D01*
X1242696Y46126D01*
X1239119Y37491D01*
X1232509Y30881D01*
X1223874Y27304D01*
X1214526Y27304D01*
G37*
%LPD*%
%LPC*%
G36*
X1046654Y927439D02*
X1046654Y927439D01*
X1039288Y930490D01*
X1033650Y936128D01*
X1030599Y943494D01*
X1030599Y951466D01*
X1033650Y958832D01*
X1039288Y964470D01*
X1046654Y967521D01*
X1054626Y967521D01*
X1061992Y964470D01*
X1067630Y958832D01*
X1070681Y951466D01*
X1070681Y943494D01*
X1067630Y936128D01*
X1061992Y930490D01*
X1054626Y927439D01*
X1046654Y927439D01*
G37*
%LPD*%
%LPC*%
G36*
X296654Y927439D02*
X296654Y927439D01*
X289288Y930490D01*
X283650Y936128D01*
X280599Y943494D01*
X280599Y951466D01*
X283650Y958832D01*
X289288Y964470D01*
X296654Y967521D01*
X304626Y967521D01*
X311992Y964470D01*
X317630Y958832D01*
X320681Y951466D01*
X320681Y943494D01*
X317630Y936128D01*
X311992Y930490D01*
X304626Y927439D01*
X296654Y927439D01*
G37*
%LPD*%
%LPC*%
G36*
X296654Y617439D02*
X296654Y617439D01*
X289288Y620490D01*
X283650Y626128D01*
X280599Y633494D01*
X280599Y641466D01*
X283650Y648832D01*
X289288Y654470D01*
X296654Y657521D01*
X304626Y657521D01*
X311992Y654470D01*
X317630Y648832D01*
X320681Y641466D01*
X320681Y633494D01*
X317630Y626128D01*
X311992Y620490D01*
X304626Y617439D01*
X296654Y617439D01*
G37*
%LPD*%
%LPC*%
G36*
X1046654Y617439D02*
X1046654Y617439D01*
X1039288Y620490D01*
X1033650Y626128D01*
X1030599Y633494D01*
X1030599Y641466D01*
X1033650Y648832D01*
X1039288Y654470D01*
X1046654Y657521D01*
X1054626Y657521D01*
X1061992Y654470D01*
X1067630Y648832D01*
X1070681Y641466D01*
X1070681Y633494D01*
X1067630Y626128D01*
X1061992Y620490D01*
X1054626Y617439D01*
X1046654Y617439D01*
G37*
%LPD*%
%LPC*%
G36*
X648988Y107999D02*
X648988Y107999D01*
X643460Y110289D01*
X639229Y114520D01*
X636939Y120048D01*
X636939Y126032D01*
X639229Y131560D01*
X643460Y135791D01*
X648988Y138081D01*
X654972Y138081D01*
X660500Y135791D01*
X664731Y131560D01*
X667021Y126032D01*
X667021Y120048D01*
X664731Y114520D01*
X660500Y110289D01*
X654972Y107999D01*
X648988Y107999D01*
G37*
%LPD*%
%LPC*%
G36*
X548988Y107999D02*
X548988Y107999D01*
X543460Y110289D01*
X539229Y114520D01*
X536939Y120048D01*
X536939Y126032D01*
X539229Y131560D01*
X543460Y135791D01*
X548988Y138081D01*
X554972Y138081D01*
X560500Y135791D01*
X564731Y131560D01*
X567021Y126032D01*
X567021Y120048D01*
X564731Y114520D01*
X560500Y110289D01*
X554972Y107999D01*
X548988Y107999D01*
G37*
%LPD*%
%LPC*%
G36*
X224808Y806499D02*
X224808Y806499D01*
X219280Y808789D01*
X215049Y813020D01*
X212759Y818548D01*
X212759Y824532D01*
X215049Y830060D01*
X219280Y834291D01*
X224808Y836581D01*
X230792Y836581D01*
X236320Y834291D01*
X240551Y830060D01*
X242841Y824532D01*
X242841Y818548D01*
X240551Y813020D01*
X236320Y808789D01*
X230792Y806499D01*
X224808Y806499D01*
G37*
%LPD*%
%LPC*%
G36*
X124808Y806499D02*
X124808Y806499D01*
X119280Y808789D01*
X115049Y813020D01*
X112759Y818548D01*
X112759Y824532D01*
X115049Y830060D01*
X119280Y834291D01*
X124808Y836581D01*
X130792Y836581D01*
X136320Y834291D01*
X140551Y830060D01*
X142841Y824532D01*
X142841Y818548D01*
X140551Y813020D01*
X136320Y808789D01*
X130792Y806499D01*
X124808Y806499D01*
G37*
%LPD*%
%LPC*%
G36*
X900245Y366519D02*
X900245Y366519D01*
X895710Y368398D01*
X892238Y371870D01*
X890359Y376405D01*
X890359Y381315D01*
X892238Y385850D01*
X895710Y389322D01*
X900245Y391201D01*
X905155Y391201D01*
X909690Y389322D01*
X913162Y385850D01*
X915041Y381315D01*
X915041Y376405D01*
X913162Y371870D01*
X909690Y368398D01*
X905155Y366519D01*
X900245Y366519D01*
G37*
%LPD*%
%LPC*%
G36*
X1025245Y366519D02*
X1025245Y366519D01*
X1020710Y368398D01*
X1017238Y371870D01*
X1015359Y376405D01*
X1015359Y381315D01*
X1017238Y385850D01*
X1020710Y389322D01*
X1025245Y391201D01*
X1030155Y391201D01*
X1034690Y389322D01*
X1038162Y385850D01*
X1040041Y381315D01*
X1040041Y376405D01*
X1038162Y371870D01*
X1034690Y368398D01*
X1030155Y366519D01*
X1025245Y366519D01*
G37*
%LPD*%
%LPC*%
G36*
X900245Y416519D02*
X900245Y416519D01*
X895710Y418398D01*
X892238Y421870D01*
X890359Y426405D01*
X890359Y431315D01*
X892238Y435850D01*
X895710Y439322D01*
X900245Y441201D01*
X905155Y441201D01*
X909690Y439322D01*
X913162Y435850D01*
X915041Y431315D01*
X915041Y426405D01*
X913162Y421870D01*
X909690Y418398D01*
X905155Y416519D01*
X900245Y416519D01*
G37*
%LPD*%
%LPC*%
G36*
X1025245Y416519D02*
X1025245Y416519D01*
X1020710Y418398D01*
X1017238Y421870D01*
X1015359Y426405D01*
X1015359Y431315D01*
X1017238Y435850D01*
X1020710Y439322D01*
X1025245Y441201D01*
X1030155Y441201D01*
X1034690Y439322D01*
X1038162Y435850D01*
X1040041Y431315D01*
X1040041Y426405D01*
X1038162Y421870D01*
X1034690Y418398D01*
X1030155Y416519D01*
X1025245Y416519D01*
G37*
%LPD*%
%LPC*%
G36*
X785542Y942939D02*
X785542Y942939D01*
X782036Y944392D01*
X779352Y947076D01*
X777899Y950582D01*
X777899Y954378D01*
X779352Y957884D01*
X782036Y960568D01*
X785542Y962021D01*
X789338Y962021D01*
X792844Y960568D01*
X795528Y957884D01*
X796981Y954378D01*
X796981Y950582D01*
X795528Y947076D01*
X792844Y944392D01*
X789338Y942939D01*
X785542Y942939D01*
G37*
%LPD*%
%LPC*%
G36*
X760142Y942939D02*
X760142Y942939D01*
X756636Y944392D01*
X753952Y947076D01*
X752499Y950582D01*
X752499Y954378D01*
X753952Y957884D01*
X756636Y960568D01*
X760142Y962021D01*
X763938Y962021D01*
X767444Y960568D01*
X770128Y957884D01*
X771581Y954378D01*
X771581Y950582D01*
X770128Y947076D01*
X767444Y944392D01*
X763938Y942939D01*
X760142Y942939D01*
G37*
%LPD*%
%LPC*%
G36*
X734742Y942939D02*
X734742Y942939D01*
X731236Y944392D01*
X728552Y947076D01*
X727099Y950582D01*
X727099Y954378D01*
X728552Y957884D01*
X731236Y960568D01*
X734742Y962021D01*
X738538Y962021D01*
X742044Y960568D01*
X744728Y957884D01*
X746181Y954378D01*
X746181Y950582D01*
X744728Y947076D01*
X742044Y944392D01*
X738538Y942939D01*
X734742Y942939D01*
G37*
%LPD*%
%LPC*%
G36*
X709342Y942939D02*
X709342Y942939D01*
X705836Y944392D01*
X703152Y947076D01*
X701699Y950582D01*
X701699Y954378D01*
X703152Y957884D01*
X705836Y960568D01*
X709342Y962021D01*
X713138Y962021D01*
X716644Y960568D01*
X719328Y957884D01*
X720781Y954378D01*
X720781Y950582D01*
X719328Y947076D01*
X716644Y944392D01*
X713138Y942939D01*
X709342Y942939D01*
G37*
%LPD*%
%LPC*%
G36*
X683942Y942939D02*
X683942Y942939D01*
X680436Y944392D01*
X677752Y947076D01*
X676299Y950582D01*
X676299Y954378D01*
X677752Y957884D01*
X680436Y960568D01*
X683942Y962021D01*
X687738Y962021D01*
X691244Y960568D01*
X693928Y957884D01*
X695381Y954378D01*
X695381Y950582D01*
X693928Y947076D01*
X691244Y944392D01*
X687738Y942939D01*
X683942Y942939D01*
G37*
%LPD*%
%LPC*%
G36*
X658542Y942939D02*
X658542Y942939D01*
X655036Y944392D01*
X652352Y947076D01*
X650899Y950582D01*
X650899Y954378D01*
X652352Y957884D01*
X655036Y960568D01*
X658542Y962021D01*
X662338Y962021D01*
X665844Y960568D01*
X668528Y957884D01*
X669981Y954378D01*
X669981Y950582D01*
X668528Y947076D01*
X665844Y944392D01*
X662338Y942939D01*
X658542Y942939D01*
G37*
%LPD*%
%LPC*%
G36*
X633142Y942939D02*
X633142Y942939D01*
X629636Y944392D01*
X626952Y947076D01*
X625499Y950582D01*
X625499Y954378D01*
X626952Y957884D01*
X629636Y960568D01*
X633142Y962021D01*
X636938Y962021D01*
X640444Y960568D01*
X643128Y957884D01*
X644581Y954378D01*
X644581Y950582D01*
X643128Y947076D01*
X640444Y944392D01*
X636938Y942939D01*
X633142Y942939D01*
G37*
%LPD*%
%LPC*%
G36*
X607742Y942939D02*
X607742Y942939D01*
X604236Y944392D01*
X601552Y947076D01*
X600099Y950582D01*
X600099Y954378D01*
X601552Y957884D01*
X604236Y960568D01*
X607742Y962021D01*
X611538Y962021D01*
X615044Y960568D01*
X617728Y957884D01*
X619181Y954378D01*
X619181Y950582D01*
X617728Y947076D01*
X615044Y944392D01*
X611538Y942939D01*
X607742Y942939D01*
G37*
%LPD*%
%LPC*%
G36*
X582342Y942939D02*
X582342Y942939D01*
X578836Y944392D01*
X576152Y947076D01*
X574699Y950582D01*
X574699Y954378D01*
X576152Y957884D01*
X578836Y960568D01*
X582342Y962021D01*
X586138Y962021D01*
X589644Y960568D01*
X592328Y957884D01*
X593781Y954378D01*
X593781Y950582D01*
X592328Y947076D01*
X589644Y944392D01*
X586138Y942939D01*
X582342Y942939D01*
G37*
%LPD*%
%LPC*%
G36*
X556942Y942939D02*
X556942Y942939D01*
X553436Y944392D01*
X550752Y947076D01*
X549299Y950582D01*
X549299Y954378D01*
X550752Y957884D01*
X553436Y960568D01*
X556942Y962021D01*
X560738Y962021D01*
X564244Y960568D01*
X566928Y957884D01*
X568381Y954378D01*
X568381Y950582D01*
X566928Y947076D01*
X564244Y944392D01*
X560738Y942939D01*
X556942Y942939D01*
G37*
%LPD*%
%LPC*%
G36*
X531542Y942939D02*
X531542Y942939D01*
X528036Y944392D01*
X525352Y947076D01*
X523899Y950582D01*
X523899Y954378D01*
X525352Y957884D01*
X528036Y960568D01*
X531542Y962021D01*
X535338Y962021D01*
X538844Y960568D01*
X541528Y957884D01*
X542981Y954378D01*
X542981Y950582D01*
X541528Y947076D01*
X538844Y944392D01*
X535338Y942939D01*
X531542Y942939D01*
G37*
%LPD*%
%LPC*%
G36*
X506142Y942939D02*
X506142Y942939D01*
X502636Y944392D01*
X499952Y947076D01*
X498499Y950582D01*
X498499Y954378D01*
X499952Y957884D01*
X502636Y960568D01*
X506142Y962021D01*
X509938Y962021D01*
X513444Y960568D01*
X516128Y957884D01*
X517581Y954378D01*
X517581Y950582D01*
X516128Y947076D01*
X513444Y944392D01*
X509938Y942939D01*
X506142Y942939D01*
G37*
%LPD*%
%LPC*%
G36*
X480742Y942939D02*
X480742Y942939D01*
X477236Y944392D01*
X474552Y947076D01*
X473099Y950582D01*
X473099Y954378D01*
X474552Y957884D01*
X477236Y960568D01*
X480742Y962021D01*
X484538Y962021D01*
X488044Y960568D01*
X490728Y957884D01*
X492181Y954378D01*
X492181Y950582D01*
X490728Y947076D01*
X488044Y944392D01*
X484538Y942939D01*
X480742Y942939D01*
G37*
%LPD*%
%LPC*%
G36*
X455342Y942939D02*
X455342Y942939D01*
X451836Y944392D01*
X449152Y947076D01*
X447699Y950582D01*
X447699Y954378D01*
X449152Y957884D01*
X451836Y960568D01*
X455342Y962021D01*
X459138Y962021D01*
X462644Y960568D01*
X465328Y957884D01*
X466781Y954378D01*
X466781Y950582D01*
X465328Y947076D01*
X462644Y944392D01*
X459138Y942939D01*
X455342Y942939D01*
G37*
%LPD*%
%LPC*%
G36*
X429942Y942939D02*
X429942Y942939D01*
X426436Y944392D01*
X423752Y947076D01*
X422299Y950582D01*
X422299Y954378D01*
X423752Y957884D01*
X426436Y960568D01*
X429942Y962021D01*
X433738Y962021D01*
X437244Y960568D01*
X439928Y957884D01*
X441381Y954378D01*
X441381Y950582D01*
X439928Y947076D01*
X437244Y944392D01*
X433738Y942939D01*
X429942Y942939D01*
G37*
%LPD*%
%LPC*%
G36*
X404542Y942939D02*
X404542Y942939D01*
X401036Y944392D01*
X398352Y947076D01*
X396899Y950582D01*
X396899Y954378D01*
X398352Y957884D01*
X401036Y960568D01*
X404542Y962021D01*
X408338Y962021D01*
X411844Y960568D01*
X414528Y957884D01*
X415981Y954378D01*
X415981Y950582D01*
X414528Y947076D01*
X411844Y944392D01*
X408338Y942939D01*
X404542Y942939D01*
G37*
%LPD*%
%LPC*%
G36*
X379142Y942939D02*
X379142Y942939D01*
X375636Y944392D01*
X372952Y947076D01*
X371499Y950582D01*
X371499Y954378D01*
X372952Y957884D01*
X375636Y960568D01*
X379142Y962021D01*
X382938Y962021D01*
X386444Y960568D01*
X389128Y957884D01*
X390581Y954378D01*
X390581Y950582D01*
X389128Y947076D01*
X386444Y944392D01*
X382938Y942939D01*
X379142Y942939D01*
G37*
%LPD*%
%LPC*%
G36*
X353742Y942939D02*
X353742Y942939D01*
X350236Y944392D01*
X347552Y947076D01*
X346099Y950582D01*
X346099Y954378D01*
X347552Y957884D01*
X350236Y960568D01*
X353742Y962021D01*
X357538Y962021D01*
X361044Y960568D01*
X363728Y957884D01*
X365181Y954378D01*
X365181Y950582D01*
X363728Y947076D01*
X361044Y944392D01*
X357538Y942939D01*
X353742Y942939D01*
G37*
%LPD*%
%LPC*%
G36*
X200902Y881999D02*
X200902Y881999D01*
X197396Y883452D01*
X194712Y886136D01*
X193259Y889642D01*
X193259Y893438D01*
X194712Y896944D01*
X197396Y899628D01*
X200902Y901081D01*
X204698Y901081D01*
X208204Y899628D01*
X210888Y896944D01*
X212341Y893438D01*
X212341Y889642D01*
X210888Y886136D01*
X208204Y883452D01*
X204698Y881999D01*
X200902Y881999D01*
G37*
%LPD*%
%LPC*%
G36*
X175902Y881999D02*
X175902Y881999D01*
X172396Y883452D01*
X169712Y886136D01*
X168259Y889642D01*
X168259Y893438D01*
X169712Y896944D01*
X172396Y899628D01*
X175902Y901081D01*
X179698Y901081D01*
X183204Y899628D01*
X185888Y896944D01*
X187341Y893438D01*
X187341Y889642D01*
X185888Y886136D01*
X183204Y883452D01*
X179698Y881999D01*
X175902Y881999D01*
G37*
%LPD*%
%LPC*%
G36*
X150902Y881999D02*
X150902Y881999D01*
X147396Y883452D01*
X144712Y886136D01*
X143259Y889642D01*
X143259Y893438D01*
X144712Y896944D01*
X147396Y899628D01*
X150902Y901081D01*
X154698Y901081D01*
X158204Y899628D01*
X160888Y896944D01*
X162341Y893438D01*
X162341Y889642D01*
X160888Y886136D01*
X158204Y883452D01*
X154698Y881999D01*
X150902Y881999D01*
G37*
%LPD*%
%LPC*%
G36*
X600082Y183499D02*
X600082Y183499D01*
X596576Y184952D01*
X593892Y187636D01*
X592439Y191142D01*
X592439Y194938D01*
X593892Y198444D01*
X596576Y201128D01*
X600082Y202581D01*
X603878Y202581D01*
X607384Y201128D01*
X610068Y198444D01*
X611521Y194938D01*
X611521Y191142D01*
X610068Y187636D01*
X607384Y184952D01*
X603878Y183499D01*
X600082Y183499D01*
G37*
%LPD*%
%LPC*%
G36*
X625082Y183499D02*
X625082Y183499D01*
X621576Y184952D01*
X618892Y187636D01*
X617439Y191142D01*
X617439Y194938D01*
X618892Y198444D01*
X621576Y201128D01*
X625082Y202581D01*
X628878Y202581D01*
X632384Y201128D01*
X635068Y198444D01*
X636521Y194938D01*
X636521Y191142D01*
X635068Y187636D01*
X632384Y184952D01*
X628878Y183499D01*
X625082Y183499D01*
G37*
%LPD*%
%LPC*%
G36*
X141177Y539616D02*
X141177Y539616D01*
X137956Y540950D01*
X135490Y543416D01*
X134156Y546637D01*
X134156Y550123D01*
X135490Y553344D01*
X137956Y555810D01*
X141177Y557144D01*
X144663Y557144D01*
X147884Y555810D01*
X150350Y553344D01*
X151684Y550123D01*
X151684Y546637D01*
X150350Y543416D01*
X147884Y540950D01*
X144663Y539616D01*
X141177Y539616D01*
G37*
%LPD*%
%LPC*%
G36*
X115777Y539616D02*
X115777Y539616D01*
X112556Y540950D01*
X110090Y543416D01*
X108756Y546637D01*
X108756Y550123D01*
X110090Y553344D01*
X112556Y555810D01*
X115777Y557144D01*
X119263Y557144D01*
X122484Y555810D01*
X124950Y553344D01*
X126284Y550123D01*
X126284Y546637D01*
X124950Y543416D01*
X122484Y540950D01*
X119263Y539616D01*
X115777Y539616D01*
G37*
%LPD*%
%LPC*%
G36*
X547577Y539616D02*
X547577Y539616D01*
X544356Y540950D01*
X541890Y543416D01*
X540556Y546637D01*
X540556Y550123D01*
X541890Y553344D01*
X544356Y555810D01*
X547577Y557144D01*
X551063Y557144D01*
X554284Y555810D01*
X556750Y553344D01*
X558084Y550123D01*
X558084Y546637D01*
X556750Y543416D01*
X554284Y540950D01*
X551063Y539616D01*
X547577Y539616D01*
G37*
%LPD*%
%LPC*%
G36*
X522177Y539616D02*
X522177Y539616D01*
X518956Y540950D01*
X516490Y543416D01*
X515156Y546637D01*
X515156Y550123D01*
X516490Y553344D01*
X518956Y555810D01*
X522177Y557144D01*
X525663Y557144D01*
X528884Y555810D01*
X531350Y553344D01*
X532684Y550123D01*
X532684Y546637D01*
X531350Y543416D01*
X528884Y540950D01*
X525663Y539616D01*
X522177Y539616D01*
G37*
%LPD*%
%LPC*%
G36*
X496777Y539616D02*
X496777Y539616D01*
X493556Y540950D01*
X491090Y543416D01*
X489756Y546637D01*
X489756Y550123D01*
X491090Y553344D01*
X493556Y555810D01*
X496777Y557144D01*
X500263Y557144D01*
X503484Y555810D01*
X505950Y553344D01*
X507284Y550123D01*
X507284Y546637D01*
X505950Y543416D01*
X503484Y540950D01*
X500263Y539616D01*
X496777Y539616D01*
G37*
%LPD*%
%LPC*%
G36*
X471377Y539616D02*
X471377Y539616D01*
X468156Y540950D01*
X465690Y543416D01*
X464356Y546637D01*
X464356Y550123D01*
X465690Y553344D01*
X468156Y555810D01*
X471377Y557144D01*
X474863Y557144D01*
X478084Y555810D01*
X480550Y553344D01*
X481884Y550123D01*
X481884Y546637D01*
X480550Y543416D01*
X478084Y540950D01*
X474863Y539616D01*
X471377Y539616D01*
G37*
%LPD*%
%LPC*%
G36*
X445977Y539616D02*
X445977Y539616D01*
X442756Y540950D01*
X440290Y543416D01*
X438956Y546637D01*
X438956Y550123D01*
X440290Y553344D01*
X442756Y555810D01*
X445977Y557144D01*
X449463Y557144D01*
X452684Y555810D01*
X455150Y553344D01*
X456484Y550123D01*
X456484Y546637D01*
X455150Y543416D01*
X452684Y540950D01*
X449463Y539616D01*
X445977Y539616D01*
G37*
%LPD*%
%LPC*%
G36*
X420577Y539616D02*
X420577Y539616D01*
X417356Y540950D01*
X414890Y543416D01*
X413556Y546637D01*
X413556Y550123D01*
X414890Y553344D01*
X417356Y555810D01*
X420577Y557144D01*
X424063Y557144D01*
X427284Y555810D01*
X429750Y553344D01*
X431084Y550123D01*
X431084Y546637D01*
X429750Y543416D01*
X427284Y540950D01*
X424063Y539616D01*
X420577Y539616D01*
G37*
%LPD*%
%LPC*%
G36*
X395177Y539616D02*
X395177Y539616D01*
X391956Y540950D01*
X389490Y543416D01*
X388156Y546637D01*
X388156Y550123D01*
X389490Y553344D01*
X391956Y555810D01*
X395177Y557144D01*
X398663Y557144D01*
X401884Y555810D01*
X404350Y553344D01*
X405684Y550123D01*
X405684Y546637D01*
X404350Y543416D01*
X401884Y540950D01*
X398663Y539616D01*
X395177Y539616D01*
G37*
%LPD*%
%LPC*%
G36*
X369777Y539616D02*
X369777Y539616D01*
X366556Y540950D01*
X364090Y543416D01*
X362756Y546637D01*
X362756Y550123D01*
X364090Y553344D01*
X366556Y555810D01*
X369777Y557144D01*
X373263Y557144D01*
X376484Y555810D01*
X378950Y553344D01*
X380284Y550123D01*
X380284Y546637D01*
X378950Y543416D01*
X376484Y540950D01*
X373263Y539616D01*
X369777Y539616D01*
G37*
%LPD*%
%LPC*%
G36*
X344377Y539616D02*
X344377Y539616D01*
X341156Y540950D01*
X338690Y543416D01*
X337356Y546637D01*
X337356Y550123D01*
X338690Y553344D01*
X341156Y555810D01*
X344377Y557144D01*
X347863Y557144D01*
X351084Y555810D01*
X353550Y553344D01*
X354884Y550123D01*
X354884Y546637D01*
X353550Y543416D01*
X351084Y540950D01*
X347863Y539616D01*
X344377Y539616D01*
G37*
%LPD*%
%LPC*%
G36*
X318977Y539616D02*
X318977Y539616D01*
X315756Y540950D01*
X313290Y543416D01*
X311956Y546637D01*
X311956Y550123D01*
X313290Y553344D01*
X315756Y555810D01*
X318977Y557144D01*
X322463Y557144D01*
X325684Y555810D01*
X328150Y553344D01*
X329484Y550123D01*
X329484Y546637D01*
X328150Y543416D01*
X325684Y540950D01*
X322463Y539616D01*
X318977Y539616D01*
G37*
%LPD*%
%LPC*%
G36*
X293577Y539616D02*
X293577Y539616D01*
X290356Y540950D01*
X287890Y543416D01*
X286556Y546637D01*
X286556Y550123D01*
X287890Y553344D01*
X290356Y555810D01*
X293577Y557144D01*
X297063Y557144D01*
X300284Y555810D01*
X302750Y553344D01*
X304084Y550123D01*
X304084Y546637D01*
X302750Y543416D01*
X300284Y540950D01*
X297063Y539616D01*
X293577Y539616D01*
G37*
%LPD*%
%LPC*%
G36*
X268177Y539616D02*
X268177Y539616D01*
X264956Y540950D01*
X262490Y543416D01*
X261156Y546637D01*
X261156Y550123D01*
X262490Y553344D01*
X264956Y555810D01*
X268177Y557144D01*
X271663Y557144D01*
X274884Y555810D01*
X277350Y553344D01*
X278684Y550123D01*
X278684Y546637D01*
X277350Y543416D01*
X274884Y540950D01*
X271663Y539616D01*
X268177Y539616D01*
G37*
%LPD*%
%LPC*%
G36*
X242777Y539616D02*
X242777Y539616D01*
X239556Y540950D01*
X237090Y543416D01*
X235756Y546637D01*
X235756Y550123D01*
X237090Y553344D01*
X239556Y555810D01*
X242777Y557144D01*
X246263Y557144D01*
X249484Y555810D01*
X251950Y553344D01*
X253284Y550123D01*
X253284Y546637D01*
X251950Y543416D01*
X249484Y540950D01*
X246263Y539616D01*
X242777Y539616D01*
G37*
%LPD*%
%LPC*%
G36*
X217377Y539616D02*
X217377Y539616D01*
X214156Y540950D01*
X211690Y543416D01*
X210356Y546637D01*
X210356Y550123D01*
X211690Y553344D01*
X214156Y555810D01*
X217377Y557144D01*
X220863Y557144D01*
X224084Y555810D01*
X226550Y553344D01*
X227884Y550123D01*
X227884Y546637D01*
X226550Y543416D01*
X224084Y540950D01*
X220863Y539616D01*
X217377Y539616D01*
G37*
%LPD*%
%LPC*%
G36*
X191977Y539616D02*
X191977Y539616D01*
X188756Y540950D01*
X186290Y543416D01*
X184956Y546637D01*
X184956Y550123D01*
X186290Y553344D01*
X188756Y555810D01*
X191977Y557144D01*
X195463Y557144D01*
X198684Y555810D01*
X201150Y553344D01*
X202484Y550123D01*
X202484Y546637D01*
X201150Y543416D01*
X198684Y540950D01*
X195463Y539616D01*
X191977Y539616D01*
G37*
%LPD*%
%LPC*%
G36*
X166577Y539616D02*
X166577Y539616D01*
X163356Y540950D01*
X160890Y543416D01*
X159556Y546637D01*
X159556Y550123D01*
X160890Y553344D01*
X163356Y555810D01*
X166577Y557144D01*
X170063Y557144D01*
X173284Y555810D01*
X175750Y553344D01*
X177084Y550123D01*
X177084Y546637D01*
X175750Y543416D01*
X173284Y540950D01*
X170063Y539616D01*
X166577Y539616D01*
G37*
%LPD*%
%LPC*%
G36*
X547577Y514216D02*
X547577Y514216D01*
X544356Y515550D01*
X541890Y518016D01*
X540556Y521237D01*
X540556Y524723D01*
X541890Y527944D01*
X544356Y530410D01*
X547577Y531744D01*
X551063Y531744D01*
X554284Y530410D01*
X556750Y527944D01*
X558084Y524723D01*
X558084Y521237D01*
X556750Y518016D01*
X554284Y515550D01*
X551063Y514216D01*
X547577Y514216D01*
G37*
%LPD*%
%LPC*%
G36*
X522177Y514216D02*
X522177Y514216D01*
X518956Y515550D01*
X516490Y518016D01*
X515156Y521237D01*
X515156Y524723D01*
X516490Y527944D01*
X518956Y530410D01*
X522177Y531744D01*
X525663Y531744D01*
X528884Y530410D01*
X531350Y527944D01*
X532684Y524723D01*
X532684Y521237D01*
X531350Y518016D01*
X528884Y515550D01*
X525663Y514216D01*
X522177Y514216D01*
G37*
%LPD*%
%LPC*%
G36*
X496777Y514216D02*
X496777Y514216D01*
X493556Y515550D01*
X491090Y518016D01*
X489756Y521237D01*
X489756Y524723D01*
X491090Y527944D01*
X493556Y530410D01*
X496777Y531744D01*
X500263Y531744D01*
X503484Y530410D01*
X505950Y527944D01*
X507284Y524723D01*
X507284Y521237D01*
X505950Y518016D01*
X503484Y515550D01*
X500263Y514216D01*
X496777Y514216D01*
G37*
%LPD*%
%LPC*%
G36*
X471377Y514216D02*
X471377Y514216D01*
X468156Y515550D01*
X465690Y518016D01*
X464356Y521237D01*
X464356Y524723D01*
X465690Y527944D01*
X468156Y530410D01*
X471377Y531744D01*
X474863Y531744D01*
X478084Y530410D01*
X480550Y527944D01*
X481884Y524723D01*
X481884Y521237D01*
X480550Y518016D01*
X478084Y515550D01*
X474863Y514216D01*
X471377Y514216D01*
G37*
%LPD*%
%LPC*%
G36*
X445977Y514216D02*
X445977Y514216D01*
X442756Y515550D01*
X440290Y518016D01*
X438956Y521237D01*
X438956Y524723D01*
X440290Y527944D01*
X442756Y530410D01*
X445977Y531744D01*
X449463Y531744D01*
X452684Y530410D01*
X455150Y527944D01*
X456484Y524723D01*
X456484Y521237D01*
X455150Y518016D01*
X452684Y515550D01*
X449463Y514216D01*
X445977Y514216D01*
G37*
%LPD*%
%LPC*%
G36*
X420577Y514216D02*
X420577Y514216D01*
X417356Y515550D01*
X414890Y518016D01*
X413556Y521237D01*
X413556Y524723D01*
X414890Y527944D01*
X417356Y530410D01*
X420577Y531744D01*
X424063Y531744D01*
X427284Y530410D01*
X429750Y527944D01*
X431084Y524723D01*
X431084Y521237D01*
X429750Y518016D01*
X427284Y515550D01*
X424063Y514216D01*
X420577Y514216D01*
G37*
%LPD*%
%LPC*%
G36*
X369777Y514216D02*
X369777Y514216D01*
X366556Y515550D01*
X364090Y518016D01*
X362756Y521237D01*
X362756Y524723D01*
X364090Y527944D01*
X366556Y530410D01*
X369777Y531744D01*
X373263Y531744D01*
X376484Y530410D01*
X378950Y527944D01*
X380284Y524723D01*
X380284Y521237D01*
X378950Y518016D01*
X376484Y515550D01*
X373263Y514216D01*
X369777Y514216D01*
G37*
%LPD*%
%LPC*%
G36*
X344377Y514216D02*
X344377Y514216D01*
X341156Y515550D01*
X338690Y518016D01*
X337356Y521237D01*
X337356Y524723D01*
X338690Y527944D01*
X341156Y530410D01*
X344377Y531744D01*
X347863Y531744D01*
X351084Y530410D01*
X353550Y527944D01*
X354884Y524723D01*
X354884Y521237D01*
X353550Y518016D01*
X351084Y515550D01*
X347863Y514216D01*
X344377Y514216D01*
G37*
%LPD*%
%LPC*%
G36*
X318977Y514216D02*
X318977Y514216D01*
X315756Y515550D01*
X313290Y518016D01*
X311956Y521237D01*
X311956Y524723D01*
X313290Y527944D01*
X315756Y530410D01*
X318977Y531744D01*
X322463Y531744D01*
X325684Y530410D01*
X328150Y527944D01*
X329484Y524723D01*
X329484Y521237D01*
X328150Y518016D01*
X325684Y515550D01*
X322463Y514216D01*
X318977Y514216D01*
G37*
%LPD*%
%LPC*%
G36*
X293577Y514216D02*
X293577Y514216D01*
X290356Y515550D01*
X287890Y518016D01*
X286556Y521237D01*
X286556Y524723D01*
X287890Y527944D01*
X290356Y530410D01*
X293577Y531744D01*
X297063Y531744D01*
X300284Y530410D01*
X302750Y527944D01*
X304084Y524723D01*
X304084Y521237D01*
X302750Y518016D01*
X300284Y515550D01*
X297063Y514216D01*
X293577Y514216D01*
G37*
%LPD*%
%LPC*%
G36*
X268177Y514216D02*
X268177Y514216D01*
X264956Y515550D01*
X262490Y518016D01*
X261156Y521237D01*
X261156Y524723D01*
X262490Y527944D01*
X264956Y530410D01*
X268177Y531744D01*
X271663Y531744D01*
X274884Y530410D01*
X277350Y527944D01*
X278684Y524723D01*
X278684Y521237D01*
X277350Y518016D01*
X274884Y515550D01*
X271663Y514216D01*
X268177Y514216D01*
G37*
%LPD*%
%LPC*%
G36*
X242777Y514216D02*
X242777Y514216D01*
X239556Y515550D01*
X237090Y518016D01*
X235756Y521237D01*
X235756Y524723D01*
X237090Y527944D01*
X239556Y530410D01*
X242777Y531744D01*
X246263Y531744D01*
X249484Y530410D01*
X251950Y527944D01*
X253284Y524723D01*
X253284Y521237D01*
X251950Y518016D01*
X249484Y515550D01*
X246263Y514216D01*
X242777Y514216D01*
G37*
%LPD*%
%LPC*%
G36*
X191977Y514216D02*
X191977Y514216D01*
X188756Y515550D01*
X186290Y518016D01*
X184956Y521237D01*
X184956Y524723D01*
X186290Y527944D01*
X188756Y530410D01*
X191977Y531744D01*
X195463Y531744D01*
X198684Y530410D01*
X201150Y527944D01*
X202484Y524723D01*
X202484Y521237D01*
X201150Y518016D01*
X198684Y515550D01*
X195463Y514216D01*
X191977Y514216D01*
G37*
%LPD*%
%LPC*%
G36*
X217377Y514216D02*
X217377Y514216D01*
X214156Y515550D01*
X211690Y518016D01*
X210356Y521237D01*
X210356Y524723D01*
X211690Y527944D01*
X214156Y530410D01*
X217377Y531744D01*
X220863Y531744D01*
X224084Y530410D01*
X226550Y527944D01*
X227884Y524723D01*
X227884Y521237D01*
X226550Y518016D01*
X224084Y515550D01*
X220863Y514216D01*
X217377Y514216D01*
G37*
%LPD*%
%LPC*%
G36*
X115777Y514216D02*
X115777Y514216D01*
X112556Y515550D01*
X110090Y518016D01*
X108756Y521237D01*
X108756Y524723D01*
X110090Y527944D01*
X112556Y530410D01*
X115777Y531744D01*
X119263Y531744D01*
X122484Y530410D01*
X124950Y527944D01*
X126284Y524723D01*
X126284Y521237D01*
X124950Y518016D01*
X122484Y515550D01*
X119263Y514216D01*
X115777Y514216D01*
G37*
%LPD*%
%LPC*%
G36*
X770417Y323976D02*
X770417Y323976D01*
X767196Y325310D01*
X764730Y327776D01*
X763396Y330997D01*
X763396Y334483D01*
X764730Y337704D01*
X767196Y340170D01*
X770417Y341504D01*
X773903Y341504D01*
X777124Y340170D01*
X779590Y337704D01*
X780924Y334483D01*
X780924Y330997D01*
X779590Y327776D01*
X777124Y325310D01*
X773903Y323976D01*
X770417Y323976D01*
G37*
%LPD*%
%LPC*%
G36*
X770417Y298576D02*
X770417Y298576D01*
X767196Y299910D01*
X764730Y302376D01*
X763396Y305597D01*
X763396Y309083D01*
X764730Y312304D01*
X767196Y314770D01*
X770417Y316104D01*
X773903Y316104D01*
X777124Y314770D01*
X779590Y312304D01*
X780924Y309083D01*
X780924Y305597D01*
X779590Y302376D01*
X777124Y299910D01*
X773903Y298576D01*
X770417Y298576D01*
G37*
%LPD*%
%LPC*%
G36*
X547577Y285616D02*
X547577Y285616D01*
X544356Y286950D01*
X541890Y289416D01*
X540556Y292637D01*
X540556Y296123D01*
X541890Y299344D01*
X544356Y301810D01*
X547577Y303144D01*
X551063Y303144D01*
X554284Y301810D01*
X556750Y299344D01*
X558084Y296123D01*
X558084Y292637D01*
X556750Y289416D01*
X554284Y286950D01*
X551063Y285616D01*
X547577Y285616D01*
G37*
%LPD*%
%LPC*%
G36*
X522177Y285616D02*
X522177Y285616D01*
X518956Y286950D01*
X516490Y289416D01*
X515156Y292637D01*
X515156Y296123D01*
X516490Y299344D01*
X518956Y301810D01*
X522177Y303144D01*
X525663Y303144D01*
X528884Y301810D01*
X531350Y299344D01*
X532684Y296123D01*
X532684Y292637D01*
X531350Y289416D01*
X528884Y286950D01*
X525663Y285616D01*
X522177Y285616D01*
G37*
%LPD*%
%LPC*%
G36*
X344377Y285616D02*
X344377Y285616D01*
X341156Y286950D01*
X338690Y289416D01*
X337356Y292637D01*
X337356Y296123D01*
X338690Y299344D01*
X341156Y301810D01*
X344377Y303144D01*
X347863Y303144D01*
X351084Y301810D01*
X353550Y299344D01*
X354884Y296123D01*
X354884Y292637D01*
X353550Y289416D01*
X351084Y286950D01*
X347863Y285616D01*
X344377Y285616D01*
G37*
%LPD*%
%LPC*%
G36*
X293577Y285616D02*
X293577Y285616D01*
X290356Y286950D01*
X287890Y289416D01*
X286556Y292637D01*
X286556Y296123D01*
X287890Y299344D01*
X290356Y301810D01*
X293577Y303144D01*
X297063Y303144D01*
X300284Y301810D01*
X302750Y299344D01*
X304084Y296123D01*
X304084Y292637D01*
X302750Y289416D01*
X300284Y286950D01*
X297063Y285616D01*
X293577Y285616D01*
G37*
%LPD*%
%LPC*%
G36*
X496777Y285616D02*
X496777Y285616D01*
X493556Y286950D01*
X491090Y289416D01*
X489756Y292637D01*
X489756Y296123D01*
X491090Y299344D01*
X493556Y301810D01*
X496777Y303144D01*
X500263Y303144D01*
X503484Y301810D01*
X505950Y299344D01*
X507284Y296123D01*
X507284Y292637D01*
X505950Y289416D01*
X503484Y286950D01*
X500263Y285616D01*
X496777Y285616D01*
G37*
%LPD*%
%LPC*%
G36*
X471377Y285616D02*
X471377Y285616D01*
X468156Y286950D01*
X465690Y289416D01*
X464356Y292637D01*
X464356Y296123D01*
X465690Y299344D01*
X468156Y301810D01*
X471377Y303144D01*
X474863Y303144D01*
X478084Y301810D01*
X480550Y299344D01*
X481884Y296123D01*
X481884Y292637D01*
X480550Y289416D01*
X478084Y286950D01*
X474863Y285616D01*
X471377Y285616D01*
G37*
%LPD*%
%LPC*%
G36*
X445977Y285616D02*
X445977Y285616D01*
X442756Y286950D01*
X440290Y289416D01*
X438956Y292637D01*
X438956Y296123D01*
X440290Y299344D01*
X442756Y301810D01*
X445977Y303144D01*
X449463Y303144D01*
X452684Y301810D01*
X455150Y299344D01*
X456484Y296123D01*
X456484Y292637D01*
X455150Y289416D01*
X452684Y286950D01*
X449463Y285616D01*
X445977Y285616D01*
G37*
%LPD*%
%LPC*%
G36*
X420577Y285616D02*
X420577Y285616D01*
X417356Y286950D01*
X414890Y289416D01*
X413556Y292637D01*
X413556Y296123D01*
X414890Y299344D01*
X417356Y301810D01*
X420577Y303144D01*
X424063Y303144D01*
X427284Y301810D01*
X429750Y299344D01*
X431084Y296123D01*
X431084Y292637D01*
X429750Y289416D01*
X427284Y286950D01*
X424063Y285616D01*
X420577Y285616D01*
G37*
%LPD*%
%LPC*%
G36*
X395177Y285616D02*
X395177Y285616D01*
X391956Y286950D01*
X389490Y289416D01*
X388156Y292637D01*
X388156Y296123D01*
X389490Y299344D01*
X391956Y301810D01*
X395177Y303144D01*
X398663Y303144D01*
X401884Y301810D01*
X404350Y299344D01*
X405684Y296123D01*
X405684Y292637D01*
X404350Y289416D01*
X401884Y286950D01*
X398663Y285616D01*
X395177Y285616D01*
G37*
%LPD*%
%LPC*%
G36*
X369777Y285616D02*
X369777Y285616D01*
X366556Y286950D01*
X364090Y289416D01*
X362756Y292637D01*
X362756Y296123D01*
X364090Y299344D01*
X366556Y301810D01*
X369777Y303144D01*
X373263Y303144D01*
X376484Y301810D01*
X378950Y299344D01*
X380284Y296123D01*
X380284Y292637D01*
X378950Y289416D01*
X376484Y286950D01*
X373263Y285616D01*
X369777Y285616D01*
G37*
%LPD*%
%LPC*%
G36*
X547577Y260216D02*
X547577Y260216D01*
X544356Y261550D01*
X541890Y264016D01*
X540556Y267237D01*
X540556Y270723D01*
X541890Y273944D01*
X544356Y276410D01*
X547577Y277744D01*
X551063Y277744D01*
X554284Y276410D01*
X556750Y273944D01*
X558084Y270723D01*
X558084Y267237D01*
X556750Y264016D01*
X554284Y261550D01*
X551063Y260216D01*
X547577Y260216D01*
G37*
%LPD*%
%LPC*%
G36*
X217377Y285616D02*
X217377Y285616D01*
X214156Y286950D01*
X211690Y289416D01*
X210356Y292637D01*
X210356Y296123D01*
X211690Y299344D01*
X214156Y301810D01*
X217377Y303144D01*
X220863Y303144D01*
X224084Y301810D01*
X226550Y299344D01*
X227884Y296123D01*
X227884Y292637D01*
X226550Y289416D01*
X224084Y286950D01*
X220863Y285616D01*
X217377Y285616D01*
G37*
%LPD*%
%LPC*%
G36*
X191977Y285616D02*
X191977Y285616D01*
X188756Y286950D01*
X186290Y289416D01*
X184956Y292637D01*
X184956Y296123D01*
X186290Y299344D01*
X188756Y301810D01*
X191977Y303144D01*
X195463Y303144D01*
X198684Y301810D01*
X201150Y299344D01*
X202484Y296123D01*
X202484Y292637D01*
X201150Y289416D01*
X198684Y286950D01*
X195463Y285616D01*
X191977Y285616D01*
G37*
%LPD*%
%LPC*%
G36*
X166577Y285616D02*
X166577Y285616D01*
X163356Y286950D01*
X160890Y289416D01*
X159556Y292637D01*
X159556Y296123D01*
X160890Y299344D01*
X163356Y301810D01*
X166577Y303144D01*
X170063Y303144D01*
X173284Y301810D01*
X175750Y299344D01*
X177084Y296123D01*
X177084Y292637D01*
X175750Y289416D01*
X173284Y286950D01*
X170063Y285616D01*
X166577Y285616D01*
G37*
%LPD*%
%LPC*%
G36*
X141177Y285616D02*
X141177Y285616D01*
X137956Y286950D01*
X135490Y289416D01*
X134156Y292637D01*
X134156Y296123D01*
X135490Y299344D01*
X137956Y301810D01*
X141177Y303144D01*
X144663Y303144D01*
X147884Y301810D01*
X150350Y299344D01*
X151684Y296123D01*
X151684Y292637D01*
X150350Y289416D01*
X147884Y286950D01*
X144663Y285616D01*
X141177Y285616D01*
G37*
%LPD*%
%LPC*%
G36*
X115777Y285616D02*
X115777Y285616D01*
X112556Y286950D01*
X110090Y289416D01*
X108756Y292637D01*
X108756Y296123D01*
X110090Y299344D01*
X112556Y301810D01*
X115777Y303144D01*
X119263Y303144D01*
X122484Y301810D01*
X124950Y299344D01*
X126284Y296123D01*
X126284Y292637D01*
X124950Y289416D01*
X122484Y286950D01*
X119263Y285616D01*
X115777Y285616D01*
G37*
%LPD*%
%LPC*%
G36*
X770417Y273176D02*
X770417Y273176D01*
X767196Y274510D01*
X764730Y276976D01*
X763396Y280197D01*
X763396Y283683D01*
X764730Y286904D01*
X767196Y289370D01*
X770417Y290704D01*
X773903Y290704D01*
X777124Y289370D01*
X779590Y286904D01*
X780924Y283683D01*
X780924Y280197D01*
X779590Y276976D01*
X777124Y274510D01*
X773903Y273176D01*
X770417Y273176D01*
G37*
%LPD*%
%LPC*%
G36*
X141177Y260216D02*
X141177Y260216D01*
X137956Y261550D01*
X135490Y264016D01*
X134156Y267237D01*
X134156Y270723D01*
X135490Y273944D01*
X137956Y276410D01*
X141177Y277744D01*
X144663Y277744D01*
X147884Y276410D01*
X150350Y273944D01*
X151684Y270723D01*
X151684Y267237D01*
X150350Y264016D01*
X147884Y261550D01*
X144663Y260216D01*
X141177Y260216D01*
G37*
%LPD*%
%LPC*%
G36*
X115777Y260216D02*
X115777Y260216D01*
X112556Y261550D01*
X110090Y264016D01*
X108756Y267237D01*
X108756Y270723D01*
X110090Y273944D01*
X112556Y276410D01*
X115777Y277744D01*
X119263Y277744D01*
X122484Y276410D01*
X124950Y273944D01*
X126284Y270723D01*
X126284Y267237D01*
X124950Y264016D01*
X122484Y261550D01*
X119263Y260216D01*
X115777Y260216D01*
G37*
%LPD*%
%LPC*%
G36*
X141177Y514216D02*
X141177Y514216D01*
X137956Y515550D01*
X135490Y518016D01*
X134156Y521237D01*
X134156Y524723D01*
X135490Y527944D01*
X137956Y530410D01*
X141177Y531744D01*
X144663Y531744D01*
X147884Y530410D01*
X150350Y527944D01*
X151684Y524723D01*
X151684Y521237D01*
X150350Y518016D01*
X147884Y515550D01*
X144663Y514216D01*
X141177Y514216D01*
G37*
%LPD*%
%LPC*%
G36*
X522177Y260216D02*
X522177Y260216D01*
X518956Y261550D01*
X516490Y264016D01*
X515156Y267237D01*
X515156Y270723D01*
X516490Y273944D01*
X518956Y276410D01*
X522177Y277744D01*
X525663Y277744D01*
X528884Y276410D01*
X531350Y273944D01*
X532684Y270723D01*
X532684Y267237D01*
X531350Y264016D01*
X528884Y261550D01*
X525663Y260216D01*
X522177Y260216D01*
G37*
%LPD*%
%LPC*%
G36*
X496777Y260216D02*
X496777Y260216D01*
X493556Y261550D01*
X491090Y264016D01*
X489756Y267237D01*
X489756Y270723D01*
X491090Y273944D01*
X493556Y276410D01*
X496777Y277744D01*
X500263Y277744D01*
X503484Y276410D01*
X505950Y273944D01*
X507284Y270723D01*
X507284Y267237D01*
X505950Y264016D01*
X503484Y261550D01*
X500263Y260216D01*
X496777Y260216D01*
G37*
%LPD*%
%LPC*%
G36*
X471377Y260216D02*
X471377Y260216D01*
X468156Y261550D01*
X465690Y264016D01*
X464356Y267237D01*
X464356Y270723D01*
X465690Y273944D01*
X468156Y276410D01*
X471377Y277744D01*
X474863Y277744D01*
X478084Y276410D01*
X480550Y273944D01*
X481884Y270723D01*
X481884Y267237D01*
X480550Y264016D01*
X478084Y261550D01*
X474863Y260216D01*
X471377Y260216D01*
G37*
%LPD*%
%LPC*%
G36*
X445977Y260216D02*
X445977Y260216D01*
X442756Y261550D01*
X440290Y264016D01*
X438956Y267237D01*
X438956Y270723D01*
X440290Y273944D01*
X442756Y276410D01*
X445977Y277744D01*
X449463Y277744D01*
X452684Y276410D01*
X455150Y273944D01*
X456484Y270723D01*
X456484Y267237D01*
X455150Y264016D01*
X452684Y261550D01*
X449463Y260216D01*
X445977Y260216D01*
G37*
%LPD*%
%LPC*%
G36*
X420577Y260216D02*
X420577Y260216D01*
X417356Y261550D01*
X414890Y264016D01*
X413556Y267237D01*
X413556Y270723D01*
X414890Y273944D01*
X417356Y276410D01*
X420577Y277744D01*
X424063Y277744D01*
X427284Y276410D01*
X429750Y273944D01*
X431084Y270723D01*
X431084Y267237D01*
X429750Y264016D01*
X427284Y261550D01*
X424063Y260216D01*
X420577Y260216D01*
G37*
%LPD*%
%LPC*%
G36*
X395177Y260216D02*
X395177Y260216D01*
X391956Y261550D01*
X389490Y264016D01*
X388156Y267237D01*
X388156Y270723D01*
X389490Y273944D01*
X391956Y276410D01*
X395177Y277744D01*
X398663Y277744D01*
X401884Y276410D01*
X404350Y273944D01*
X405684Y270723D01*
X405684Y267237D01*
X404350Y264016D01*
X401884Y261550D01*
X398663Y260216D01*
X395177Y260216D01*
G37*
%LPD*%
%LPC*%
G36*
X369777Y260216D02*
X369777Y260216D01*
X366556Y261550D01*
X364090Y264016D01*
X362756Y267237D01*
X362756Y270723D01*
X364090Y273944D01*
X366556Y276410D01*
X369777Y277744D01*
X373263Y277744D01*
X376484Y276410D01*
X378950Y273944D01*
X380284Y270723D01*
X380284Y267237D01*
X378950Y264016D01*
X376484Y261550D01*
X373263Y260216D01*
X369777Y260216D01*
G37*
%LPD*%
%LPC*%
G36*
X344377Y260216D02*
X344377Y260216D01*
X341156Y261550D01*
X338690Y264016D01*
X337356Y267237D01*
X337356Y270723D01*
X338690Y273944D01*
X341156Y276410D01*
X344377Y277744D01*
X347863Y277744D01*
X351084Y276410D01*
X353550Y273944D01*
X354884Y270723D01*
X354884Y267237D01*
X353550Y264016D01*
X351084Y261550D01*
X347863Y260216D01*
X344377Y260216D01*
G37*
%LPD*%
%LPC*%
G36*
X318977Y260216D02*
X318977Y260216D01*
X315756Y261550D01*
X313290Y264016D01*
X311956Y267237D01*
X311956Y270723D01*
X313290Y273944D01*
X315756Y276410D01*
X318977Y277744D01*
X322463Y277744D01*
X325684Y276410D01*
X328150Y273944D01*
X329484Y270723D01*
X329484Y267237D01*
X328150Y264016D01*
X325684Y261550D01*
X322463Y260216D01*
X318977Y260216D01*
G37*
%LPD*%
%LPC*%
G36*
X293577Y260216D02*
X293577Y260216D01*
X290356Y261550D01*
X287890Y264016D01*
X286556Y267237D01*
X286556Y270723D01*
X287890Y273944D01*
X290356Y276410D01*
X293577Y277744D01*
X297063Y277744D01*
X300284Y276410D01*
X302750Y273944D01*
X304084Y270723D01*
X304084Y267237D01*
X302750Y264016D01*
X300284Y261550D01*
X297063Y260216D01*
X293577Y260216D01*
G37*
%LPD*%
%LPC*%
G36*
X268177Y260216D02*
X268177Y260216D01*
X264956Y261550D01*
X262490Y264016D01*
X261156Y267237D01*
X261156Y270723D01*
X262490Y273944D01*
X264956Y276410D01*
X268177Y277744D01*
X271663Y277744D01*
X274884Y276410D01*
X277350Y273944D01*
X278684Y270723D01*
X278684Y267237D01*
X277350Y264016D01*
X274884Y261550D01*
X271663Y260216D01*
X268177Y260216D01*
G37*
%LPD*%
%LPC*%
G36*
X242777Y260216D02*
X242777Y260216D01*
X239556Y261550D01*
X237090Y264016D01*
X235756Y267237D01*
X235756Y270723D01*
X237090Y273944D01*
X239556Y276410D01*
X242777Y277744D01*
X246263Y277744D01*
X249484Y276410D01*
X251950Y273944D01*
X253284Y270723D01*
X253284Y267237D01*
X251950Y264016D01*
X249484Y261550D01*
X246263Y260216D01*
X242777Y260216D01*
G37*
%LPD*%
%LPC*%
G36*
X217377Y260216D02*
X217377Y260216D01*
X214156Y261550D01*
X211690Y264016D01*
X210356Y267237D01*
X210356Y270723D01*
X211690Y273944D01*
X214156Y276410D01*
X217377Y277744D01*
X220863Y277744D01*
X224084Y276410D01*
X226550Y273944D01*
X227884Y270723D01*
X227884Y267237D01*
X226550Y264016D01*
X224084Y261550D01*
X220863Y260216D01*
X217377Y260216D01*
G37*
%LPD*%
%LPC*%
G36*
X191977Y260216D02*
X191977Y260216D01*
X188756Y261550D01*
X186290Y264016D01*
X184956Y267237D01*
X184956Y270723D01*
X186290Y273944D01*
X188756Y276410D01*
X191977Y277744D01*
X195463Y277744D01*
X198684Y276410D01*
X201150Y273944D01*
X202484Y270723D01*
X202484Y267237D01*
X201150Y264016D01*
X198684Y261550D01*
X195463Y260216D01*
X191977Y260216D01*
G37*
%LPD*%
%LPC*%
G36*
X166577Y260216D02*
X166577Y260216D01*
X163356Y261550D01*
X160890Y264016D01*
X159556Y267237D01*
X159556Y270723D01*
X160890Y273944D01*
X163356Y276410D01*
X166577Y277744D01*
X170063Y277744D01*
X173284Y276410D01*
X175750Y273944D01*
X177084Y270723D01*
X177084Y267237D01*
X175750Y264016D01*
X173284Y261550D01*
X170063Y260216D01*
X166577Y260216D01*
G37*
%LPD*%
%LPC*%
G36*
X242777Y285616D02*
X242777Y285616D01*
X239556Y286950D01*
X237090Y289416D01*
X235756Y292637D01*
X235756Y296123D01*
X237090Y299344D01*
X239556Y301810D01*
X242777Y303144D01*
X246263Y303144D01*
X249484Y301810D01*
X251950Y299344D01*
X253284Y296123D01*
X253284Y292637D01*
X251950Y289416D01*
X249484Y286950D01*
X246263Y285616D01*
X242777Y285616D01*
G37*
%LPD*%
%LPC*%
G36*
X280197Y153796D02*
X280197Y153796D01*
X276976Y155130D01*
X274510Y157596D01*
X273176Y160817D01*
X273176Y164303D01*
X274510Y167524D01*
X276976Y169990D01*
X280197Y171324D01*
X283683Y171324D01*
X286904Y169990D01*
X289370Y167524D01*
X290704Y164303D01*
X290704Y160817D01*
X289370Y157596D01*
X286904Y155130D01*
X283683Y153796D01*
X280197Y153796D01*
G37*
%LPD*%
%LPC*%
G36*
X242097Y153796D02*
X242097Y153796D01*
X238876Y155130D01*
X236410Y157596D01*
X235076Y160817D01*
X235076Y164303D01*
X236410Y167524D01*
X238876Y169990D01*
X242097Y171324D01*
X245583Y171324D01*
X248804Y169990D01*
X251270Y167524D01*
X252604Y164303D01*
X252604Y160817D01*
X251270Y157596D01*
X248804Y155130D01*
X245583Y153796D01*
X242097Y153796D01*
G37*
%LPD*%
%LPC*%
G36*
X280197Y128396D02*
X280197Y128396D01*
X276976Y129730D01*
X274510Y132196D01*
X273176Y135417D01*
X273176Y138903D01*
X274510Y142124D01*
X276976Y144590D01*
X280197Y145924D01*
X283683Y145924D01*
X286904Y144590D01*
X289370Y142124D01*
X290704Y138903D01*
X290704Y135417D01*
X289370Y132196D01*
X286904Y129730D01*
X283683Y128396D01*
X280197Y128396D01*
G37*
%LPD*%
%LPC*%
G36*
X166577Y514216D02*
X166577Y514216D01*
X163356Y515550D01*
X160890Y518016D01*
X159556Y521237D01*
X159556Y524723D01*
X160890Y527944D01*
X163356Y530410D01*
X166577Y531744D01*
X170063Y531744D01*
X173284Y530410D01*
X175750Y527944D01*
X177084Y524723D01*
X177084Y521237D01*
X175750Y518016D01*
X173284Y515550D01*
X170063Y514216D01*
X166577Y514216D01*
G37*
%LPD*%
%LPC*%
G36*
X1091043Y118645D02*
X1091043Y118645D01*
X1088906Y119530D01*
X1087270Y121166D01*
X1086385Y123303D01*
X1086385Y125617D01*
X1087270Y127754D01*
X1088906Y129390D01*
X1091043Y130275D01*
X1093357Y130275D01*
X1095494Y129390D01*
X1097130Y127754D01*
X1098015Y125617D01*
X1098015Y123303D01*
X1097130Y121166D01*
X1095494Y119530D01*
X1093357Y118645D01*
X1091043Y118645D01*
G37*
%LPD*%
%LPC*%
G36*
X280783Y95785D02*
X280783Y95785D01*
X278646Y96670D01*
X277010Y98306D01*
X276125Y100443D01*
X276125Y102757D01*
X277010Y104894D01*
X278646Y106530D01*
X280783Y107415D01*
X283097Y107415D01*
X285234Y106530D01*
X286870Y104894D01*
X287755Y102757D01*
X287755Y100443D01*
X286870Y98306D01*
X285234Y96670D01*
X283097Y95785D01*
X280783Y95785D01*
G37*
%LPD*%
%LPC*%
G36*
X579479Y195539D02*
X579479Y195539D01*
X579479Y202260D01*
X580642Y201882D01*
X581981Y201200D01*
X583195Y200317D01*
X584257Y199255D01*
X585140Y198041D01*
X585822Y196702D01*
X586200Y195539D01*
X579479Y195539D01*
G37*
%LPD*%
%LPC*%
G36*
X567760Y195539D02*
X567760Y195539D01*
X568138Y196702D01*
X568820Y198041D01*
X569703Y199255D01*
X570765Y200317D01*
X571979Y201200D01*
X573318Y201882D01*
X574481Y202260D01*
X574481Y195539D01*
X567760Y195539D01*
G37*
%LPD*%
%LPC*%
G36*
X579479Y190541D02*
X579479Y190541D01*
X586200Y190541D01*
X585822Y189378D01*
X585140Y188039D01*
X584257Y186825D01*
X583195Y185763D01*
X581981Y184880D01*
X580642Y184198D01*
X579479Y183820D01*
X579479Y190541D01*
G37*
%LPD*%
%LPC*%
G36*
X573318Y184198D02*
X573318Y184198D01*
X571979Y184880D01*
X570765Y185763D01*
X569703Y186825D01*
X568820Y188039D01*
X568138Y189378D01*
X567760Y190541D01*
X574481Y190541D01*
X574481Y183820D01*
X573318Y184198D01*
G37*
%LPD*%
%LPC*%
G36*
X399142Y525202D02*
X399142Y525202D01*
X399142Y531473D01*
X399476Y531407D01*
X401071Y530746D01*
X402507Y529787D01*
X403727Y528567D01*
X404686Y527131D01*
X405347Y525536D01*
X405413Y525202D01*
X399142Y525202D01*
G37*
%LPD*%
%LPC*%
G36*
X322942Y296602D02*
X322942Y296602D01*
X322942Y302873D01*
X323276Y302807D01*
X324871Y302146D01*
X326307Y301187D01*
X327527Y299967D01*
X328486Y298531D01*
X329147Y296936D01*
X329213Y296602D01*
X322942Y296602D01*
G37*
%LPD*%
%LPC*%
G36*
X246062Y139382D02*
X246062Y139382D01*
X246062Y145653D01*
X246396Y145587D01*
X247991Y144926D01*
X249427Y143967D01*
X250647Y142747D01*
X251606Y141311D01*
X252267Y139716D01*
X252333Y139382D01*
X246062Y139382D01*
G37*
%LPD*%
%LPC*%
G36*
X272142Y296602D02*
X272142Y296602D01*
X272142Y302873D01*
X272476Y302807D01*
X274071Y302146D01*
X275507Y301187D01*
X276727Y299967D01*
X277686Y298531D01*
X278347Y296936D01*
X278413Y296602D01*
X272142Y296602D01*
G37*
%LPD*%
%LPC*%
G36*
X388427Y525202D02*
X388427Y525202D01*
X388493Y525536D01*
X389154Y527131D01*
X390113Y528567D01*
X391333Y529787D01*
X392769Y530746D01*
X394364Y531407D01*
X394698Y531473D01*
X394698Y525202D01*
X388427Y525202D01*
G37*
%LPD*%
%LPC*%
G36*
X399142Y520758D02*
X399142Y520758D01*
X405413Y520758D01*
X405347Y520424D01*
X404686Y518829D01*
X403727Y517393D01*
X402507Y516173D01*
X401071Y515214D01*
X399476Y514553D01*
X399142Y514487D01*
X399142Y520758D01*
G37*
%LPD*%
%LPC*%
G36*
X322942Y292158D02*
X322942Y292158D01*
X329213Y292158D01*
X329147Y291824D01*
X328486Y290229D01*
X327527Y288793D01*
X326307Y287573D01*
X324871Y286614D01*
X323276Y285953D01*
X322942Y285887D01*
X322942Y292158D01*
G37*
%LPD*%
%LPC*%
G36*
X272142Y292158D02*
X272142Y292158D01*
X278413Y292158D01*
X278347Y291824D01*
X277686Y290229D01*
X276727Y288793D01*
X275507Y287573D01*
X274071Y286614D01*
X272476Y285953D01*
X272142Y285887D01*
X272142Y292158D01*
G37*
%LPD*%
%LPC*%
G36*
X235347Y139382D02*
X235347Y139382D01*
X235413Y139716D01*
X236074Y141311D01*
X237033Y142747D01*
X238253Y143967D01*
X239689Y144926D01*
X241284Y145587D01*
X241618Y145653D01*
X241618Y139382D01*
X235347Y139382D01*
G37*
%LPD*%
%LPC*%
G36*
X261427Y296602D02*
X261427Y296602D01*
X261493Y296936D01*
X262154Y298531D01*
X263113Y299967D01*
X264333Y301187D01*
X265769Y302146D01*
X267364Y302807D01*
X267698Y302873D01*
X267698Y296602D01*
X261427Y296602D01*
G37*
%LPD*%
%LPC*%
G36*
X246062Y134938D02*
X246062Y134938D01*
X252333Y134938D01*
X252267Y134604D01*
X251606Y133009D01*
X250647Y131573D01*
X249427Y130353D01*
X247991Y129394D01*
X246396Y128733D01*
X246062Y128667D01*
X246062Y134938D01*
G37*
%LPD*%
%LPC*%
G36*
X312227Y296602D02*
X312227Y296602D01*
X312293Y296936D01*
X312954Y298531D01*
X313913Y299967D01*
X315133Y301187D01*
X316569Y302146D01*
X318164Y302807D01*
X318498Y302873D01*
X318498Y296602D01*
X312227Y296602D01*
G37*
%LPD*%
%LPC*%
G36*
X394364Y514553D02*
X394364Y514553D01*
X392769Y515214D01*
X391333Y516173D01*
X390113Y517393D01*
X389154Y518829D01*
X388493Y520424D01*
X388427Y520758D01*
X394698Y520758D01*
X394698Y514487D01*
X394364Y514553D01*
G37*
%LPD*%
%LPC*%
G36*
X318164Y285953D02*
X318164Y285953D01*
X316569Y286614D01*
X315133Y287573D01*
X313913Y288793D01*
X312954Y290229D01*
X312293Y291824D01*
X312227Y292158D01*
X318498Y292158D01*
X318498Y285887D01*
X318164Y285953D01*
G37*
%LPD*%
%LPC*%
G36*
X267364Y285953D02*
X267364Y285953D01*
X265769Y286614D01*
X264333Y287573D01*
X263113Y288793D01*
X262154Y290229D01*
X261493Y291824D01*
X261427Y292158D01*
X267698Y292158D01*
X267698Y285887D01*
X267364Y285953D01*
G37*
%LPD*%
%LPC*%
G36*
X241284Y128733D02*
X241284Y128733D01*
X239689Y129394D01*
X238253Y130353D01*
X237033Y131573D01*
X236074Y133009D01*
X235413Y134604D01*
X235347Y134938D01*
X241618Y134938D01*
X241618Y128667D01*
X241284Y128733D01*
G37*
%LPD*%
D10*
X50800Y50800D03*
X1219200Y50800D03*
X1219200Y965200D03*
X50800Y965200D03*
D11*
X576980Y193040D03*
X601980Y193040D03*
X626980Y193040D03*
X152800Y891540D03*
X177800Y891540D03*
X202800Y891540D03*
D12*
X1027700Y428860D03*
X1027700Y378860D03*
X902700Y378860D03*
X902700Y428860D03*
D13*
X117520Y268980D03*
X117520Y294380D03*
X142920Y268980D03*
X142920Y294380D03*
X168320Y268980D03*
X168320Y294380D03*
X193720Y268980D03*
X193720Y294380D03*
X219120Y268980D03*
X219120Y294380D03*
X244520Y268980D03*
X244520Y294380D03*
X269920Y268980D03*
X269920Y294380D03*
X295320Y268980D03*
X295320Y294380D03*
X320720Y268980D03*
X320720Y294380D03*
X346120Y268980D03*
X346120Y294380D03*
X371520Y268980D03*
X371520Y294380D03*
X396920Y268980D03*
X396920Y294380D03*
X422320Y268980D03*
X422320Y294380D03*
X447720Y268980D03*
X447720Y294380D03*
X473120Y268980D03*
X473120Y294380D03*
X498520Y268980D03*
X498520Y294380D03*
X523920Y268980D03*
X523920Y294380D03*
X549320Y268980D03*
X549320Y294380D03*
X117520Y522980D03*
X117520Y548380D03*
X142920Y522980D03*
X142920Y548380D03*
X168320Y522980D03*
X168320Y548380D03*
X193720Y522980D03*
X193720Y548380D03*
X219120Y522980D03*
X219120Y548380D03*
X244520Y522980D03*
X244520Y548380D03*
X269920Y522980D03*
X269920Y548380D03*
X295320Y522980D03*
X295320Y548380D03*
X320720Y522980D03*
X320720Y548380D03*
X346120Y522980D03*
X346120Y548380D03*
X371520Y522980D03*
X371520Y548380D03*
X396920Y522980D03*
X396920Y548380D03*
X422320Y522980D03*
X422320Y548380D03*
X447720Y522980D03*
X447720Y548380D03*
X473120Y522980D03*
X473120Y548380D03*
X498520Y522980D03*
X498520Y548380D03*
X523920Y522980D03*
X523920Y548380D03*
X549320Y522980D03*
X549320Y548380D03*
D11*
X355640Y952480D03*
X381040Y952480D03*
X406440Y952480D03*
X431840Y952480D03*
X457240Y952480D03*
X482640Y952480D03*
X508040Y952480D03*
X533440Y952480D03*
X558840Y952480D03*
X584240Y952480D03*
X609640Y952480D03*
X635040Y952480D03*
X660440Y952480D03*
X685840Y952480D03*
X711240Y952480D03*
X736640Y952480D03*
D14*
X300640Y947480D03*
X1050640Y947480D03*
X300640Y637480D03*
X1050640Y637480D03*
D11*
X762040Y952480D03*
X787440Y952480D03*
D13*
X772160Y332740D03*
X772160Y307340D03*
X772160Y281940D03*
X281940Y137160D03*
X281940Y162560D03*
X243840Y162560D03*
X243840Y137160D03*
D15*
X281940Y101600D03*
X1092200Y124460D03*
D16*
X820420Y419100D03*
D15*
X243840Y101600D03*
M02*
