G04 EAGLE Gerber RS-274X export*
G75*
%MOMM*%
%FSLAX34Y34*%
%LPD*%
%INSilkscreen Bottom*%
%IPPOS*%
%AMOC8*
5,1,8,0,0,1.08239X$1,22.5*%
G01*
%ADD10C,0.127000*%
%ADD11C,0.076200*%
%ADD12C,0.101600*%


D10*
X551980Y193040D02*
X551980Y143040D01*
X551980Y103040D02*
X551980Y68040D01*
X651980Y68040D01*
X651980Y103040D01*
X651980Y143040D02*
X651980Y193040D01*
X641980Y193040D01*
X561980Y193040D02*
X551980Y193040D01*
X571980Y123040D02*
X571989Y123776D01*
X572016Y124512D01*
X572061Y125247D01*
X572124Y125981D01*
X572206Y126712D01*
X572305Y127442D01*
X572422Y128169D01*
X572556Y128893D01*
X572709Y129613D01*
X572879Y130329D01*
X573067Y131041D01*
X573272Y131749D01*
X573494Y132450D01*
X573734Y133147D01*
X573990Y133837D01*
X574264Y134521D01*
X574554Y135197D01*
X574860Y135867D01*
X575183Y136528D01*
X575522Y137182D01*
X575877Y137827D01*
X576248Y138463D01*
X576634Y139090D01*
X577036Y139707D01*
X577452Y140314D01*
X577884Y140911D01*
X578330Y141497D01*
X578790Y142072D01*
X579264Y142635D01*
X579751Y143187D01*
X580253Y143726D01*
X580767Y144253D01*
X581294Y144767D01*
X581833Y145269D01*
X582385Y145756D01*
X582948Y146230D01*
X583523Y146690D01*
X584109Y147136D01*
X584706Y147568D01*
X585313Y147984D01*
X585930Y148386D01*
X586557Y148772D01*
X587193Y149143D01*
X587838Y149498D01*
X588492Y149837D01*
X589153Y150160D01*
X589823Y150466D01*
X590499Y150756D01*
X591183Y151030D01*
X591873Y151286D01*
X592570Y151526D01*
X593271Y151748D01*
X593979Y151953D01*
X594691Y152141D01*
X595407Y152311D01*
X596127Y152464D01*
X596851Y152598D01*
X597578Y152715D01*
X598308Y152814D01*
X599039Y152896D01*
X599773Y152959D01*
X600508Y153004D01*
X601244Y153031D01*
X601980Y153040D01*
X602716Y153031D01*
X603452Y153004D01*
X604187Y152959D01*
X604921Y152896D01*
X605652Y152814D01*
X606382Y152715D01*
X607109Y152598D01*
X607833Y152464D01*
X608553Y152311D01*
X609269Y152141D01*
X609981Y151953D01*
X610689Y151748D01*
X611390Y151526D01*
X612087Y151286D01*
X612777Y151030D01*
X613461Y150756D01*
X614137Y150466D01*
X614807Y150160D01*
X615468Y149837D01*
X616122Y149498D01*
X616767Y149143D01*
X617403Y148772D01*
X618030Y148386D01*
X618647Y147984D01*
X619254Y147568D01*
X619851Y147136D01*
X620437Y146690D01*
X621012Y146230D01*
X621575Y145756D01*
X622127Y145269D01*
X622666Y144767D01*
X623193Y144253D01*
X623707Y143726D01*
X624209Y143187D01*
X624696Y142635D01*
X625170Y142072D01*
X625630Y141497D01*
X626076Y140911D01*
X626508Y140314D01*
X626924Y139707D01*
X627326Y139090D01*
X627712Y138463D01*
X628083Y137827D01*
X628438Y137182D01*
X628777Y136528D01*
X629100Y135867D01*
X629406Y135197D01*
X629696Y134521D01*
X629970Y133837D01*
X630226Y133147D01*
X630466Y132450D01*
X630688Y131749D01*
X630893Y131041D01*
X631081Y130329D01*
X631251Y129613D01*
X631404Y128893D01*
X631538Y128169D01*
X631655Y127442D01*
X631754Y126712D01*
X631836Y125981D01*
X631899Y125247D01*
X631944Y124512D01*
X631971Y123776D01*
X631980Y123040D01*
X631971Y122304D01*
X631944Y121568D01*
X631899Y120833D01*
X631836Y120099D01*
X631754Y119368D01*
X631655Y118638D01*
X631538Y117911D01*
X631404Y117187D01*
X631251Y116467D01*
X631081Y115751D01*
X630893Y115039D01*
X630688Y114331D01*
X630466Y113630D01*
X630226Y112933D01*
X629970Y112243D01*
X629696Y111559D01*
X629406Y110883D01*
X629100Y110213D01*
X628777Y109552D01*
X628438Y108898D01*
X628083Y108253D01*
X627712Y107617D01*
X627326Y106990D01*
X626924Y106373D01*
X626508Y105766D01*
X626076Y105169D01*
X625630Y104583D01*
X625170Y104008D01*
X624696Y103445D01*
X624209Y102893D01*
X623707Y102354D01*
X623193Y101827D01*
X622666Y101313D01*
X622127Y100811D01*
X621575Y100324D01*
X621012Y99850D01*
X620437Y99390D01*
X619851Y98944D01*
X619254Y98512D01*
X618647Y98096D01*
X618030Y97694D01*
X617403Y97308D01*
X616767Y96937D01*
X616122Y96582D01*
X615468Y96243D01*
X614807Y95920D01*
X614137Y95614D01*
X613461Y95324D01*
X612777Y95050D01*
X612087Y94794D01*
X611390Y94554D01*
X610689Y94332D01*
X609981Y94127D01*
X609269Y93939D01*
X608553Y93769D01*
X607833Y93616D01*
X607109Y93482D01*
X606382Y93365D01*
X605652Y93266D01*
X604921Y93184D01*
X604187Y93121D01*
X603452Y93076D01*
X602716Y93049D01*
X601980Y93040D01*
X601244Y93049D01*
X600508Y93076D01*
X599773Y93121D01*
X599039Y93184D01*
X598308Y93266D01*
X597578Y93365D01*
X596851Y93482D01*
X596127Y93616D01*
X595407Y93769D01*
X594691Y93939D01*
X593979Y94127D01*
X593271Y94332D01*
X592570Y94554D01*
X591873Y94794D01*
X591183Y95050D01*
X590499Y95324D01*
X589823Y95614D01*
X589153Y95920D01*
X588492Y96243D01*
X587838Y96582D01*
X587193Y96937D01*
X586557Y97308D01*
X585930Y97694D01*
X585313Y98096D01*
X584706Y98512D01*
X584109Y98944D01*
X583523Y99390D01*
X582948Y99850D01*
X582385Y100324D01*
X581833Y100811D01*
X581294Y101313D01*
X580767Y101827D01*
X580253Y102354D01*
X579751Y102893D01*
X579264Y103445D01*
X578790Y104008D01*
X578330Y104583D01*
X577884Y105169D01*
X577452Y105766D01*
X577036Y106373D01*
X576634Y106990D01*
X576248Y107617D01*
X575877Y108253D01*
X575522Y108898D01*
X575183Y109552D01*
X574860Y110213D01*
X574554Y110883D01*
X574264Y111559D01*
X573990Y112243D01*
X573734Y112933D01*
X573494Y113630D01*
X573272Y114331D01*
X573067Y115039D01*
X572879Y115751D01*
X572709Y116467D01*
X572556Y117187D01*
X572422Y117911D01*
X572305Y118638D01*
X572206Y119368D01*
X572124Y120099D01*
X572061Y120833D01*
X572016Y121568D01*
X571989Y122304D01*
X571980Y123040D01*
D11*
X562917Y65659D02*
X562917Y58293D01*
X562917Y65659D02*
X560871Y65659D01*
X560782Y65657D01*
X560693Y65651D01*
X560604Y65641D01*
X560516Y65628D01*
X560428Y65611D01*
X560341Y65589D01*
X560256Y65564D01*
X560171Y65536D01*
X560088Y65503D01*
X560006Y65467D01*
X559926Y65428D01*
X559848Y65385D01*
X559772Y65339D01*
X559697Y65289D01*
X559625Y65236D01*
X559556Y65180D01*
X559489Y65121D01*
X559424Y65060D01*
X559363Y64995D01*
X559304Y64928D01*
X559248Y64859D01*
X559195Y64787D01*
X559145Y64712D01*
X559099Y64636D01*
X559056Y64558D01*
X559017Y64478D01*
X558981Y64396D01*
X558948Y64313D01*
X558920Y64228D01*
X558895Y64143D01*
X558873Y64056D01*
X558856Y63968D01*
X558843Y63880D01*
X558833Y63791D01*
X558827Y63702D01*
X558825Y63613D01*
X558827Y63524D01*
X558833Y63435D01*
X558843Y63346D01*
X558856Y63258D01*
X558873Y63170D01*
X558895Y63083D01*
X558920Y62998D01*
X558948Y62913D01*
X558981Y62830D01*
X559017Y62748D01*
X559056Y62668D01*
X559099Y62590D01*
X559145Y62514D01*
X559195Y62439D01*
X559248Y62367D01*
X559304Y62298D01*
X559363Y62231D01*
X559424Y62166D01*
X559489Y62105D01*
X559556Y62046D01*
X559625Y61990D01*
X559697Y61937D01*
X559772Y61887D01*
X559848Y61841D01*
X559926Y61798D01*
X560006Y61759D01*
X560088Y61723D01*
X560171Y61690D01*
X560256Y61662D01*
X560341Y61637D01*
X560428Y61615D01*
X560516Y61598D01*
X560604Y61585D01*
X560693Y61575D01*
X560782Y61569D01*
X560871Y61567D01*
X562917Y61567D01*
X560462Y61567D02*
X558825Y58293D01*
X551561Y63818D02*
X551563Y63903D01*
X551569Y63988D01*
X551579Y64072D01*
X551592Y64156D01*
X551610Y64240D01*
X551631Y64322D01*
X551656Y64403D01*
X551685Y64483D01*
X551718Y64562D01*
X551754Y64639D01*
X551794Y64714D01*
X551837Y64788D01*
X551883Y64859D01*
X551933Y64928D01*
X551986Y64995D01*
X552042Y65059D01*
X552101Y65120D01*
X552162Y65179D01*
X552226Y65235D01*
X552293Y65288D01*
X552362Y65338D01*
X552433Y65384D01*
X552507Y65427D01*
X552582Y65467D01*
X552659Y65503D01*
X552738Y65536D01*
X552818Y65565D01*
X552899Y65590D01*
X552981Y65611D01*
X553065Y65629D01*
X553149Y65642D01*
X553233Y65652D01*
X553318Y65658D01*
X553403Y65660D01*
X553403Y65659D02*
X553499Y65657D01*
X553595Y65651D01*
X553690Y65641D01*
X553785Y65628D01*
X553880Y65610D01*
X553973Y65589D01*
X554066Y65564D01*
X554157Y65535D01*
X554248Y65503D01*
X554337Y65467D01*
X554424Y65427D01*
X554510Y65384D01*
X554594Y65338D01*
X554676Y65288D01*
X554756Y65234D01*
X554833Y65178D01*
X554908Y65118D01*
X554981Y65056D01*
X555051Y64990D01*
X555119Y64922D01*
X555184Y64851D01*
X555245Y64778D01*
X555304Y64702D01*
X555360Y64623D01*
X555412Y64543D01*
X555461Y64460D01*
X555507Y64376D01*
X555549Y64290D01*
X555587Y64202D01*
X555622Y64113D01*
X555654Y64022D01*
X552175Y62386D02*
X552115Y62445D01*
X552058Y62507D01*
X552003Y62571D01*
X551952Y62638D01*
X551903Y62707D01*
X551857Y62777D01*
X551814Y62850D01*
X551774Y62924D01*
X551738Y63000D01*
X551705Y63078D01*
X551675Y63157D01*
X551648Y63237D01*
X551625Y63318D01*
X551606Y63400D01*
X551590Y63482D01*
X551577Y63566D01*
X551568Y63650D01*
X551563Y63734D01*
X551561Y63818D01*
X552175Y62385D02*
X555653Y58293D01*
X551561Y58293D01*
D10*
X127800Y841540D02*
X127800Y891540D01*
X127800Y801540D02*
X127800Y766540D01*
X227800Y766540D01*
X227800Y801540D01*
X227800Y841540D02*
X227800Y891540D01*
X217800Y891540D01*
X137800Y891540D02*
X127800Y891540D01*
X147800Y821540D02*
X147809Y822276D01*
X147836Y823012D01*
X147881Y823747D01*
X147944Y824481D01*
X148026Y825212D01*
X148125Y825942D01*
X148242Y826669D01*
X148376Y827393D01*
X148529Y828113D01*
X148699Y828829D01*
X148887Y829541D01*
X149092Y830249D01*
X149314Y830950D01*
X149554Y831647D01*
X149810Y832337D01*
X150084Y833021D01*
X150374Y833697D01*
X150680Y834367D01*
X151003Y835028D01*
X151342Y835682D01*
X151697Y836327D01*
X152068Y836963D01*
X152454Y837590D01*
X152856Y838207D01*
X153272Y838814D01*
X153704Y839411D01*
X154150Y839997D01*
X154610Y840572D01*
X155084Y841135D01*
X155571Y841687D01*
X156073Y842226D01*
X156587Y842753D01*
X157114Y843267D01*
X157653Y843769D01*
X158205Y844256D01*
X158768Y844730D01*
X159343Y845190D01*
X159929Y845636D01*
X160526Y846068D01*
X161133Y846484D01*
X161750Y846886D01*
X162377Y847272D01*
X163013Y847643D01*
X163658Y847998D01*
X164312Y848337D01*
X164973Y848660D01*
X165643Y848966D01*
X166319Y849256D01*
X167003Y849530D01*
X167693Y849786D01*
X168390Y850026D01*
X169091Y850248D01*
X169799Y850453D01*
X170511Y850641D01*
X171227Y850811D01*
X171947Y850964D01*
X172671Y851098D01*
X173398Y851215D01*
X174128Y851314D01*
X174859Y851396D01*
X175593Y851459D01*
X176328Y851504D01*
X177064Y851531D01*
X177800Y851540D01*
X178536Y851531D01*
X179272Y851504D01*
X180007Y851459D01*
X180741Y851396D01*
X181472Y851314D01*
X182202Y851215D01*
X182929Y851098D01*
X183653Y850964D01*
X184373Y850811D01*
X185089Y850641D01*
X185801Y850453D01*
X186509Y850248D01*
X187210Y850026D01*
X187907Y849786D01*
X188597Y849530D01*
X189281Y849256D01*
X189957Y848966D01*
X190627Y848660D01*
X191288Y848337D01*
X191942Y847998D01*
X192587Y847643D01*
X193223Y847272D01*
X193850Y846886D01*
X194467Y846484D01*
X195074Y846068D01*
X195671Y845636D01*
X196257Y845190D01*
X196832Y844730D01*
X197395Y844256D01*
X197947Y843769D01*
X198486Y843267D01*
X199013Y842753D01*
X199527Y842226D01*
X200029Y841687D01*
X200516Y841135D01*
X200990Y840572D01*
X201450Y839997D01*
X201896Y839411D01*
X202328Y838814D01*
X202744Y838207D01*
X203146Y837590D01*
X203532Y836963D01*
X203903Y836327D01*
X204258Y835682D01*
X204597Y835028D01*
X204920Y834367D01*
X205226Y833697D01*
X205516Y833021D01*
X205790Y832337D01*
X206046Y831647D01*
X206286Y830950D01*
X206508Y830249D01*
X206713Y829541D01*
X206901Y828829D01*
X207071Y828113D01*
X207224Y827393D01*
X207358Y826669D01*
X207475Y825942D01*
X207574Y825212D01*
X207656Y824481D01*
X207719Y823747D01*
X207764Y823012D01*
X207791Y822276D01*
X207800Y821540D01*
X207791Y820804D01*
X207764Y820068D01*
X207719Y819333D01*
X207656Y818599D01*
X207574Y817868D01*
X207475Y817138D01*
X207358Y816411D01*
X207224Y815687D01*
X207071Y814967D01*
X206901Y814251D01*
X206713Y813539D01*
X206508Y812831D01*
X206286Y812130D01*
X206046Y811433D01*
X205790Y810743D01*
X205516Y810059D01*
X205226Y809383D01*
X204920Y808713D01*
X204597Y808052D01*
X204258Y807398D01*
X203903Y806753D01*
X203532Y806117D01*
X203146Y805490D01*
X202744Y804873D01*
X202328Y804266D01*
X201896Y803669D01*
X201450Y803083D01*
X200990Y802508D01*
X200516Y801945D01*
X200029Y801393D01*
X199527Y800854D01*
X199013Y800327D01*
X198486Y799813D01*
X197947Y799311D01*
X197395Y798824D01*
X196832Y798350D01*
X196257Y797890D01*
X195671Y797444D01*
X195074Y797012D01*
X194467Y796596D01*
X193850Y796194D01*
X193223Y795808D01*
X192587Y795437D01*
X191942Y795082D01*
X191288Y794743D01*
X190627Y794420D01*
X189957Y794114D01*
X189281Y793824D01*
X188597Y793550D01*
X187907Y793294D01*
X187210Y793054D01*
X186509Y792832D01*
X185801Y792627D01*
X185089Y792439D01*
X184373Y792269D01*
X183653Y792116D01*
X182929Y791982D01*
X182202Y791865D01*
X181472Y791766D01*
X180741Y791684D01*
X180007Y791621D01*
X179272Y791576D01*
X178536Y791549D01*
X177800Y791540D01*
X177064Y791549D01*
X176328Y791576D01*
X175593Y791621D01*
X174859Y791684D01*
X174128Y791766D01*
X173398Y791865D01*
X172671Y791982D01*
X171947Y792116D01*
X171227Y792269D01*
X170511Y792439D01*
X169799Y792627D01*
X169091Y792832D01*
X168390Y793054D01*
X167693Y793294D01*
X167003Y793550D01*
X166319Y793824D01*
X165643Y794114D01*
X164973Y794420D01*
X164312Y794743D01*
X163658Y795082D01*
X163013Y795437D01*
X162377Y795808D01*
X161750Y796194D01*
X161133Y796596D01*
X160526Y797012D01*
X159929Y797444D01*
X159343Y797890D01*
X158768Y798350D01*
X158205Y798824D01*
X157653Y799311D01*
X157114Y799813D01*
X156587Y800327D01*
X156073Y800854D01*
X155571Y801393D01*
X155084Y801945D01*
X154610Y802508D01*
X154150Y803083D01*
X153704Y803669D01*
X153272Y804266D01*
X152856Y804873D01*
X152454Y805490D01*
X152068Y806117D01*
X151697Y806753D01*
X151342Y807398D01*
X151003Y808052D01*
X150680Y808713D01*
X150374Y809383D01*
X150084Y810059D01*
X149810Y810743D01*
X149554Y811433D01*
X149314Y812130D01*
X149092Y812831D01*
X148887Y813539D01*
X148699Y814251D01*
X148529Y814967D01*
X148376Y815687D01*
X148242Y816411D01*
X148125Y817138D01*
X148026Y817868D01*
X147944Y818599D01*
X147881Y819333D01*
X147836Y820068D01*
X147809Y820804D01*
X147800Y821540D01*
D11*
X138737Y764159D02*
X138737Y756793D01*
X138737Y764159D02*
X136691Y764159D01*
X136602Y764157D01*
X136513Y764151D01*
X136424Y764141D01*
X136336Y764128D01*
X136248Y764111D01*
X136161Y764089D01*
X136076Y764064D01*
X135991Y764036D01*
X135908Y764003D01*
X135826Y763967D01*
X135746Y763928D01*
X135668Y763885D01*
X135592Y763839D01*
X135517Y763789D01*
X135445Y763736D01*
X135376Y763680D01*
X135309Y763621D01*
X135244Y763560D01*
X135183Y763495D01*
X135124Y763428D01*
X135068Y763359D01*
X135015Y763287D01*
X134965Y763212D01*
X134919Y763136D01*
X134876Y763058D01*
X134837Y762978D01*
X134801Y762896D01*
X134768Y762813D01*
X134740Y762728D01*
X134715Y762643D01*
X134693Y762556D01*
X134676Y762468D01*
X134663Y762380D01*
X134653Y762291D01*
X134647Y762202D01*
X134645Y762113D01*
X134647Y762024D01*
X134653Y761935D01*
X134663Y761846D01*
X134676Y761758D01*
X134693Y761670D01*
X134715Y761583D01*
X134740Y761498D01*
X134768Y761413D01*
X134801Y761330D01*
X134837Y761248D01*
X134876Y761168D01*
X134919Y761090D01*
X134965Y761014D01*
X135015Y760939D01*
X135068Y760867D01*
X135124Y760798D01*
X135183Y760731D01*
X135244Y760666D01*
X135309Y760605D01*
X135376Y760546D01*
X135445Y760490D01*
X135517Y760437D01*
X135592Y760387D01*
X135668Y760341D01*
X135746Y760298D01*
X135826Y760259D01*
X135908Y760223D01*
X135991Y760190D01*
X136076Y760162D01*
X136161Y760137D01*
X136248Y760115D01*
X136336Y760098D01*
X136424Y760085D01*
X136513Y760075D01*
X136602Y760069D01*
X136691Y760067D01*
X138737Y760067D01*
X136282Y760067D02*
X134645Y756793D01*
X131473Y758430D02*
X129836Y764159D01*
X131473Y758430D02*
X127381Y758430D01*
X128609Y760067D02*
X128609Y756793D01*
D10*
X759460Y345440D02*
X784860Y345440D01*
X759460Y345440D02*
X759460Y269240D01*
X784860Y269240D01*
X784860Y345440D01*
X797560Y313690D02*
X797560Y300990D01*
X803910Y307340D02*
X791210Y307340D01*
X791210Y281940D02*
X803910Y281940D01*
X803910Y329565D02*
X800735Y329565D01*
X800735Y335915D01*
X794385Y335915D01*
X794385Y329565D01*
X791210Y329565D01*
D12*
X790702Y354274D02*
X790702Y359410D01*
X790702Y354274D02*
X790700Y354187D01*
X790694Y354099D01*
X790685Y354012D01*
X790671Y353926D01*
X790654Y353840D01*
X790633Y353756D01*
X790608Y353672D01*
X790579Y353589D01*
X790547Y353508D01*
X790512Y353428D01*
X790473Y353350D01*
X790430Y353273D01*
X790384Y353199D01*
X790335Y353127D01*
X790283Y353057D01*
X790227Y352989D01*
X790169Y352924D01*
X790108Y352861D01*
X790044Y352802D01*
X789977Y352745D01*
X789909Y352691D01*
X789837Y352640D01*
X789764Y352593D01*
X789689Y352548D01*
X789611Y352507D01*
X789532Y352470D01*
X789452Y352436D01*
X789370Y352406D01*
X789287Y352379D01*
X789202Y352356D01*
X789117Y352337D01*
X789031Y352322D01*
X788944Y352310D01*
X788857Y352302D01*
X788770Y352298D01*
X788682Y352298D01*
X788595Y352302D01*
X788508Y352310D01*
X788421Y352322D01*
X788335Y352337D01*
X788250Y352356D01*
X788165Y352379D01*
X788082Y352406D01*
X788000Y352436D01*
X787920Y352470D01*
X787841Y352507D01*
X787763Y352548D01*
X787688Y352593D01*
X787615Y352640D01*
X787543Y352691D01*
X787475Y352745D01*
X787408Y352802D01*
X787344Y352861D01*
X787283Y352924D01*
X787225Y352989D01*
X787169Y353057D01*
X787117Y353127D01*
X787068Y353199D01*
X787022Y353273D01*
X786979Y353350D01*
X786940Y353428D01*
X786905Y353508D01*
X786873Y353589D01*
X786844Y353672D01*
X786819Y353756D01*
X786798Y353840D01*
X786781Y353926D01*
X786767Y354012D01*
X786758Y354099D01*
X786752Y354187D01*
X786750Y354274D01*
X786751Y354274D02*
X786751Y359410D01*
X780970Y359410D02*
X780888Y359408D01*
X780806Y359402D01*
X780724Y359393D01*
X780643Y359380D01*
X780563Y359363D01*
X780483Y359342D01*
X780405Y359318D01*
X780328Y359290D01*
X780252Y359259D01*
X780177Y359224D01*
X780105Y359185D01*
X780034Y359144D01*
X779965Y359099D01*
X779899Y359051D01*
X779834Y359000D01*
X779772Y358946D01*
X779713Y358889D01*
X779656Y358830D01*
X779602Y358768D01*
X779551Y358703D01*
X779503Y358637D01*
X779458Y358568D01*
X779417Y358497D01*
X779378Y358425D01*
X779343Y358350D01*
X779312Y358274D01*
X779284Y358197D01*
X779260Y358119D01*
X779239Y358039D01*
X779222Y357959D01*
X779209Y357878D01*
X779200Y357796D01*
X779194Y357714D01*
X779192Y357632D01*
X780970Y359410D02*
X781063Y359408D01*
X781155Y359402D01*
X781247Y359393D01*
X781339Y359380D01*
X781430Y359363D01*
X781520Y359343D01*
X781610Y359319D01*
X781698Y359291D01*
X781786Y359259D01*
X781871Y359225D01*
X781956Y359186D01*
X782038Y359145D01*
X782119Y359100D01*
X782199Y359051D01*
X782276Y359000D01*
X782351Y358946D01*
X782423Y358888D01*
X782494Y358828D01*
X782561Y358764D01*
X782626Y358699D01*
X782689Y358630D01*
X782748Y358559D01*
X782805Y358486D01*
X782859Y358410D01*
X782909Y358333D01*
X782957Y358253D01*
X783001Y358171D01*
X783041Y358088D01*
X783079Y358003D01*
X783113Y357917D01*
X783143Y357830D01*
X779785Y356249D02*
X779724Y356310D01*
X779666Y356373D01*
X779611Y356439D01*
X779558Y356507D01*
X779509Y356578D01*
X779464Y356650D01*
X779421Y356725D01*
X779382Y356801D01*
X779346Y356880D01*
X779314Y356959D01*
X779286Y357040D01*
X779261Y357123D01*
X779240Y357206D01*
X779223Y357290D01*
X779209Y357375D01*
X779200Y357460D01*
X779194Y357546D01*
X779192Y357632D01*
X779785Y356249D02*
X783143Y352298D01*
X779192Y352298D01*
M02*
